<svg id="Layer_1" data-name="Layer 1" xmlns="http://www.w3.org/2000/svg" viewBox="0 0 1366 323.23"><defs><style>.cls-1{fill:#fff;}.cls-2{fill:#360e36;}.cls-3{fill:#6d286c;}.cls-4{fill:#351235;}</style></defs><rect class="cls-1" width="1366" height="323.23"/><path class="cls-2" d="M375.26,127.44a88.15,88.15,0,1,1-18.82-27.91A87.2,87.2,0,0,1,375.26,127.44Zm5.36,34.18a86.27,86.27,0,1,0-86.27,86.27A86.37,86.37,0,0,0,380.62,161.62Z"/><path class="cls-2" d="M372.49,128.61a85,85,0,1,1-18.17-27A84.29,84.29,0,0,1,372.49,128.61Zm5.12,33a83.26,83.26,0,1,0-83.25,83.26A83.35,83.35,0,0,0,377.61,161.62Z"/><path class="cls-1" d="M371.1,180.71a3.1,3.1,0,0,1,.26,2.44,3.86,3.86,0,0,1-1.32,2,4.51,4.51,0,0,1-2.49.89v-1.47a2.53,2.53,0,0,0,2.34-1.82,1.86,1.86,0,0,0-.09-1.36,1.48,1.48,0,0,0-1-.82,1.47,1.47,0,0,0-.9,0,2.42,2.42,0,0,0-.86.44,6.78,6.78,0,0,0-.95,1.06,9.53,9.53,0,0,1-1,1.12,3.39,3.39,0,0,1-.91.59,3,3,0,0,1-.92.27,2.19,2.19,0,0,1-.88-.1,2.4,2.4,0,0,1-1.6-1.37,3.21,3.21,0,0,1-.16-2.33,4.48,4.48,0,0,1,.82-1.55,3.6,3.6,0,0,1,1.48-1.1l.57,1.37a4.21,4.21,0,0,0-.91.6,2.24,2.24,0,0,0-.52,1,2.17,2.17,0,0,0,0,1.29,1.09,1.09,0,0,0,.72.7,1.13,1.13,0,0,0,.93-.17,6.07,6.07,0,0,0,1.16-1.15,9.9,9.9,0,0,1,1.2-1.29,4.17,4.17,0,0,1,1-.66,3.5,3.5,0,0,1,1.06-.26,3.34,3.34,0,0,1,1.07.13A2.92,2.92,0,0,1,371.1,180.71Z"/><path class="cls-1" d="M369.13,159.17a2.45,2.45,0,1,1-2.46,2.45A2.45,2.45,0,0,1,369.13,159.17Z"/><polygon class="cls-1" points="369.79 136.64 370.3 137.96 360.1 141.82 364.74 131.83 357.82 134.44 357.31 133.1 367.45 129.27 362.76 139.28 369.79 136.64"/><polygon class="cls-1" points="367.53 193 366.98 194.28 358.72 190.67 357.74 192.94 356.43 192.37 358.98 186.53 360.3 187.11 359.29 189.39 367.53 193"/><polygon class="cls-1" points="364.29 200.97 353.5 203.24 359.76 207.2 358.98 208.4 349.85 202.58 360.66 200.34 354.33 196.31 355.1 195.11 364.29 200.97"/><path class="cls-1" d="M362.17,119.74a5.58,5.58,0,0,1,.73,4.27,5.2,5.2,0,0,1-2.4,3.46,5.4,5.4,0,0,1-4.27.68,5.9,5.9,0,0,1-4.27-6.94,5.37,5.37,0,0,1,2.5-3.52,5.12,5.12,0,0,1,4.19-.59A5.73,5.73,0,0,1,362.17,119.74Zm-.7,3.88a4.24,4.24,0,0,0-.6-3.22,4.17,4.17,0,0,0-2.58-1.89,4,4,0,0,0-3.1.48,3.8,3.8,0,0,0-1.79,2.6,4.32,4.32,0,0,0,.62,3.24,4,4,0,0,0,2.56,1.84,3.9,3.9,0,0,0,3.08-.45A3.84,3.84,0,0,0,361.47,123.62Z"/><path class="cls-3" d="M360.87,120.4a4.24,4.24,0,0,1,.6,3.22,3.84,3.84,0,0,1-1.81,2.6,3.9,3.9,0,0,1-3.08.45,4,4,0,0,1-2.56-1.84,4.32,4.32,0,0,1-.62-3.24,3.8,3.8,0,0,1,1.79-2.6,4,4,0,0,1,3.1-.48A4.17,4.17,0,0,1,360.87,120.4Z"/><path class="cls-1" d="M294.35,75.35a86.27,86.27,0,1,1-86.27,86.27A86.37,86.37,0,0,1,294.35,75.35Zm84.8,86.27a84.46,84.46,0,1,0-6.66,33A84.29,84.29,0,0,0,379.15,161.62Z"/><polygon class="cls-1" points="356.04 212.14 352.21 216.48 344.39 209.59 348.22 205.25 349.28 206.19 346.39 209.47 348.35 211.2 351.23 207.91 352.29 208.84 349.39 212.12 352.09 214.49 354.98 211.21 356.04 212.14"/><path class="cls-2" d="M341.1,114.87a66.1,66.1,0,0,1,0,93.5c-1.12,1.11-2.26,2.18-3.44,3.21-.47.41-1,.81-1.43,1.21l-.73.58c-.48.39-1,.77-1.46,1.14s-1,.74-1.5,1.1l-.8.55c-.24.17-.48.34-.73.5l-.77.51-.78.5a65.38,65.38,0,0,1-15.08,7h0c-.77.24-1.54.47-2.32.68l-1.17.32-1.17.29h0l-1.58.35h0l-.79.16a67.09,67.09,0,0,1-25.2.15l-1.83-.36c-.6-.13-1.21-.27-1.81-.42l-.6-.15c-.59-.15-1.19-.31-1.78-.48h0c-.78-.22-1.57-.46-2.35-.72l-.58-.19-.64-.22-.64-.22-.39-.15-.2-.07-.49-.18-.54-.21h0l-.75-.3-.75-.31-.74-.31-.74-.33-1-.45h0c-.93-.43-1.85-.89-2.75-1.37l-1.09-.58c-.36-.2-.72-.4-1.07-.61h0c-1.22-.7-2.42-1.45-3.6-2.24l-.45-.3a.18.18,0,0,1-.07-.05l-.85-.58q-1.8-1.26-3.53-2.66l-.84-.69-.29-.24-.29-.25-.5-.43q-1.74-1.51-3.39-3.17a66.13,66.13,0,0,1,0-93.5c1.52-1.52,3.11-3,4.74-4.32l.42-.34.83-.66a4.63,4.63,0,0,1,.42-.32c.55-.44,1.12-.86,1.69-1.27l.57-.41.5-.35.49-.34.5-.33.5-.34.68-.43.68-.43.68-.41.69-.41s0,0,.05,0l.57-.34.7-.39.1-.06.58-.31.2-.11.26-.14.25-.13.05,0,.25-.14.05,0,.44-.23.71-.35.49-.24.29-.14.54-.26.26-.12.46-.2c.13-.07.27-.12.4-.18l.39-.17h0l.79-.33q1.82-.77,3.66-1.41c.62-.22,1.24-.42,1.86-.62h0l1.76-.53.6-.17,1.19-.31h0l1.2-.3,1.82-.4,1.22-.23a67.09,67.09,0,0,1,25.2.15l.79.16h0c.53.11,1.05.23,1.58.36h0l.59.14c.39.09.78.2,1.17.3l.58.16c.39.1.78.22,1.16.33l1.16.35h0l.93.31c.62.2,1.24.42,1.85.64s1.22.46,1.83.71l1.36.56.36.15.56.25.66.3.18.08.66.32.75.36h0l.74.37.73.38c.49.25,1,.52,1.46.78l.72.41c.48.28,1,.56,1.43.85l.71.43,1.39.9.7.47.68.47.67.47,0,0,.65.47c.45.33.89.67,1.33,1l.33.25.95.76.68.57,1.12,1,.42.37.82.74.41.38.8.77h0Zm17.82,46.75a64.58,64.58,0,1,0-64.57,64.58A64.65,64.65,0,0,0,358.92,161.62Z"/><polygon class="cls-1" points="354.76 110.1 355.66 111.18 347.65 117.86 346.75 116.77 354.76 110.1"/><path class="cls-3" d="M294.36,78.37a83.26,83.26,0,1,1-83.26,83.25A83.35,83.35,0,0,1,294.36,78.37Zm77,104.78a3.1,3.1,0,0,0-.26-2.44,2.92,2.92,0,0,0-1.86-1.51,3.34,3.34,0,0,0-1.07-.13,3.5,3.5,0,0,0-1.06.26,4.17,4.17,0,0,0-1,.66,9.9,9.9,0,0,0-1.2,1.29,6.07,6.07,0,0,1-1.16,1.15,1.13,1.13,0,0,1-.93.17,1.09,1.09,0,0,1-.72-.7,2.17,2.17,0,0,1,0-1.29,2.24,2.24,0,0,1,.52-1,4.21,4.21,0,0,1,.91-.6l-.57-1.37a3.6,3.6,0,0,0-1.48,1.1,4.48,4.48,0,0,0-.82,1.55,3.21,3.21,0,0,0,.16,2.33,2.4,2.4,0,0,0,1.6,1.37,2.19,2.19,0,0,0,.88.1,3,3,0,0,0,.92-.27,3.39,3.39,0,0,0,.91-.59,9.53,9.53,0,0,0,1-1.12,6.78,6.78,0,0,1,.95-1.06,2.42,2.42,0,0,1,.86-.44,1.47,1.47,0,0,1,.9,0,1.48,1.48,0,0,1,1,.82,1.86,1.86,0,0,1,.09,1.36,2.53,2.53,0,0,1-2.34,1.82v1.47a4.51,4.51,0,0,0,2.49-.89A3.86,3.86,0,0,0,371.36,183.15Zm.21-21.53a2.45,2.45,0,1,0-2.44,2.44A2.45,2.45,0,0,0,371.57,161.62ZM370.29,138l-.5-1.32-7,2.64,4.69-10-10.14,3.83.51,1.34,6.92-2.61-4.64,10ZM367,194.28l.55-1.28-8.24-3.61,1-2.28-1.32-.58-2.55,5.84,1.31.57,1-2.27Zm-13.48,9L364.29,201l-9.19-5.86-.77,1.2,6.33,4-10.81,2.24L359,208.4l.78-1.2ZM362.9,124a5.58,5.58,0,0,0-.73-4.27,5.73,5.73,0,0,0-3.52-2.64,5.12,5.12,0,0,0-4.19.59,5.37,5.37,0,0,0-2.5,3.52,5.9,5.9,0,0,0,4.27,6.94,5.4,5.4,0,0,0,4.27-.68A5.2,5.2,0,0,0,362.9,124Zm-10.69,92.47,3.82-4.34-1-.93-2.89,3.28-2.7-2.38,2.9-3.27-1.06-.93-2.88,3.29-2-1.73,2.89-3.28-1.06-.93-3.83,4.33Zm8.26-54.86a65.66,65.66,0,0,0-19.37-46.75l-.79-.78h0l-.8-.77-.41-.38-.82-.74-.42-.37-1.12-1-.68-.57-.95-.76-.33-.25c-.44-.34-.88-.68-1.33-1l-.65-.47,0,0c-.22-.16-.44-.32-.67-.47l-.68-.47-.7-.47c-.46-.31-.92-.61-1.39-.9l-.71-.43c-.47-.29-1-.57-1.43-.85l-.72-.41c-.48-.27-1-.53-1.46-.78l-.73-.38-.74-.37h0q-.37-.19-.75-.36l-.66-.32-.18-.08-.66-.3-.56-.25-.36-.15-1.36-.56c-.61-.25-1.22-.48-1.83-.71s-1.23-.44-1.85-.64l-.93-.31h0l-1.16-.35c-.38-.12-.77-.23-1.16-.33l-.58-.16q-.59-.17-1.17-.3l-.59-.14h0c-.53-.13-1.05-.25-1.58-.36h0l-.79-.16a67.09,67.09,0,0,0-25.2-.15l-1.22.23-1.82.4-1.2.3h0l-1.19.31-.6.17-1.76.53h0c-.62.2-1.24.4-1.86.62q-1.85.64-3.66,1.41l-.79.33h0l-.39.17c-.13.06-.27.11-.4.18l-.46.2-.26.12-.54.26-.29.14-.49.24-.71.35-.44.23-.05,0-.25.14-.05,0-.25.13-.26.14-.2.11-.58.31-.1.06-.7.39-.57.34s0,0-.05,0l-.69.41-.68.41-.68.43-.68.43-.5.34-.5.33-.49.34-.5.35-.57.41c-.57.41-1.14.83-1.69,1.27a4.63,4.63,0,0,0-.42.32l-.83.66-.42.34q-2.46,2-4.75,4.32a66.15,66.15,0,0,0,0,93.5q1.66,1.65,3.4,3.17l.5.43.29.25.29.24.84.69q1.72,1.4,3.53,2.66l.85.58a.18.18,0,0,0,.07.05l.45.3c1.18.79,2.38,1.54,3.6,2.24h0c.35.21.71.41,1.07.61l1.09.58c.9.48,1.82.94,2.75,1.37h0l1,.45.74.33.74.31.75.31.75.3h0l.54.21.49.18.2.07.39.15.64.22.64.22.58.19c.78.26,1.57.5,2.35.72h0c.59.17,1.19.33,1.78.48l.6.15c.6.15,1.21.29,1.81.42l1.83.36a67.09,67.09,0,0,0,25.2-.15l.79-.16h0l1.58-.35h0l1.17-.29,1.17-.32c.78-.21,1.55-.44,2.32-.68h0a65.38,65.38,0,0,0,15.08-7l.78-.5.77-.51c.25-.16.49-.33.73-.5l.8-.55c.5-.36,1-.72,1.5-1.1s1-.75,1.46-1.14l.73-.58c.48-.4,1-.8,1.43-1.21q1.77-1.53,3.44-3.21A65.68,65.68,0,0,0,360.47,161.62Zm-4.81-50.44-.9-1.08-8,6.67.9,1.09Zm-4.86-3.42,1-1-4.59-4.45-1,1L348,105l-6.28,6.46,1,1L349,106Zm-4,111.83a5.15,5.15,0,0,0-4.64-5.57,5.77,5.77,0,0,0-4.44,1.65l-1.93,1.63,6.71,8,1.94-1.64A5.77,5.77,0,0,0,346.81,219.59Zm-7.9-110.85,2.45-11.64L331,102.93l1.19.88,2.55-1.44,3.57,2.62-.61,2.86Zm-2.1,119.5a4.25,4.25,0,0,0-.6-3.2l-3.31-5.65-1.23.72,3.35,5.74a2.77,2.77,0,0,1,.43,2.09,2.55,2.55,0,0,1-1.31,1.6,2.46,2.46,0,0,1-2.06.3,3.19,3.19,0,0,1-1.69-1.55l-3.25-5.52-1.22.72,3.11,5.32a4.79,4.79,0,0,0,2.7,2.39,3.88,3.88,0,0,0,3.15-.51A3.75,3.75,0,0,0,336.81,228.24Zm-8.47-126.7,5.08-9.09-1.23-.7-5.08,9.11Zm-1-10.17.6-1.51a8.26,8.26,0,0,0-2.68-1.8,5.6,5.6,0,0,0-4.38,0,5.16,5.16,0,0,0-3,3,5.25,5.25,0,0,0,.11,4.3,5.72,5.72,0,0,0,3.23,3.06,6.36,6.36,0,0,0,3.12.47l.62-1.52a6,6,0,0,1-3.06-.29,4.58,4.58,0,0,1-2.53-2.27,4,4,0,0,1,2.14-5.38,4.25,4.25,0,0,1,3.28.06A7,7,0,0,1,327.34,91.37Zm-2.7,144-3.36-8.34,2.31-.93-.53-1.32-5.91,2.38.54,1.32,2.3-.92,3.35,8.34ZM316,237.85a3,3,0,0,0,.37-2.39,3.41,3.41,0,0,0-.43-1,3.11,3.11,0,0,0-.75-.79,4.16,4.16,0,0,0-1.09-.57,9,9,0,0,0-1.71-.4,6,6,0,0,1-1.58-.42,1.09,1.09,0,0,1-.6-.71,1,1,0,0,1,.24-1,2.07,2.07,0,0,1,1.12-.63,1.82,1.82,0,0,1,1.1,0,3.83,3.83,0,0,1,1,.49l.89-1.18a3.5,3.5,0,0,0-1.68-.74,4.19,4.19,0,0,0-1.77.07,3.19,3.19,0,0,0-1.91,1.3,2.43,2.43,0,0,0-.41,2.07,2.7,2.7,0,0,0,.36.81,3.21,3.21,0,0,0,.7.67,3.41,3.41,0,0,0,1,.49,9.66,9.66,0,0,0,1.46.31,6.05,6.05,0,0,1,1.39.3,2.74,2.74,0,0,1,.84.52,1.79,1.79,0,0,1,.46.76,1.54,1.54,0,0,1-.22,1.27,1.83,1.83,0,0,1-1.12.77,2.59,2.59,0,0,1-2.76-1.13l-1.27.74a4.49,4.49,0,0,0,2,1.7,3.81,3.81,0,0,0,2.41.13A3.2,3.2,0,0,0,316,237.85Zm-1.7-148a5.23,5.23,0,0,0-.89-4.12,5.89,5.89,0,0,0-7.95-1.6A5.14,5.14,0,0,0,303,87.54a5.37,5.37,0,0,0,.88,4.24,5.86,5.86,0,0,0,8,1.6A5.34,5.34,0,0,0,314.32,89.81Zm-15,0a3.42,3.42,0,0,0-.14-1.07,3.25,3.25,0,0,0-.53-1,4,4,0,0,0-.88-.85,10,10,0,0,0-1.55-.83,5.62,5.62,0,0,1-1.4-.84,1.05,1.05,0,0,1,.11-1.73,2,2,0,0,1,1.25-.31,1.92,1.92,0,0,1,1.06.26,4.5,4.5,0,0,1,.81.72l1.17-.89a3.56,3.56,0,0,0-1.42-1.16,4.27,4.27,0,0,0-1.72-.4,3.15,3.15,0,0,0-2.2.72,2.47,2.47,0,0,0-1,1.89,2.8,2.8,0,0,0,.13.88,3.88,3.88,0,0,0,.49.84,3.65,3.65,0,0,0,.8.72,10.28,10.28,0,0,0,1.34.71,6.18,6.18,0,0,1,1.25.66,2.49,2.49,0,0,1,.65.72,1.41,1.41,0,0,1,.25.86,1.51,1.51,0,0,1-.54,1.16,1.76,1.76,0,0,1-1.29.43,2.56,2.56,0,0,1-2.35-1.82l-1.43.36a4.52,4.52,0,0,0,1.48,2.2,4.07,4.07,0,0,0,2.3.77,3.21,3.21,0,0,0,2.31-.86A2.93,2.93,0,0,0,299.29,89.83Zm-.45,151.53,0-1.4-3.4.07-.2-9-1.4.05.23,10.41Zm-9.42.09-3.58-11.33-6.14,10.15,1.45.18,1.52-2.5,4.39.53.88,2.78ZM288.23,92.12a2.9,2.9,0,0,0,.68-2.31,3.2,3.2,0,0,0-.29-1,3.13,3.13,0,0,0-.65-.88,4,4,0,0,0-1-.71,12.41,12.41,0,0,0-1.64-.6,5.81,5.81,0,0,1-1.51-.63,1.06,1.06,0,0,1-.52-.77,1.11,1.11,0,0,1,.37-1,2.12,2.12,0,0,1,1.19-.49,2,2,0,0,1,1.09.1,5.26,5.26,0,0,1,.92.6l1-1a3.43,3.43,0,0,0-1.58-1,4.23,4.23,0,0,0-1.75-.15,3.2,3.2,0,0,0-2.07,1,2.49,2.49,0,0,0-.68,2,2.13,2.13,0,0,0,.27.85,2.45,2.45,0,0,0,.6.76,3.9,3.9,0,0,0,.89.61A8.26,8.26,0,0,0,285,88a8.67,8.67,0,0,1,1.33.49,2.33,2.33,0,0,1,.76.61,1.58,1.58,0,0,1,.36.82,1.5,1.5,0,0,1-.37,1.23,1.86,1.86,0,0,1-1.22.61,2.55,2.55,0,0,1-2.58-1.45l-1.37.56a4.5,4.5,0,0,0,1.79,2,3.93,3.93,0,0,0,2.38.44A3.19,3.19,0,0,0,288.23,92.12Zm-8.38,1.65-7.68-9.06-1.75,11.74,1.43-.41.43-2.89,4.25-1.2,1.89,2.23Zm-1.6,137.56.46-1.55a8.46,8.46,0,0,0-2.84-1.57,5.69,5.69,0,0,0-4.36.4,5.39,5.39,0,0,0-2.22,7.53,5.85,5.85,0,0,0,3.52,2.76A6.48,6.48,0,0,0,276,239l.46-1.55a6.31,6.31,0,0,1-3.06,0,4.52,4.52,0,0,1-2.73-2,3.93,3.93,0,0,1,1.62-5.55,4.24,4.24,0,0,1,3.25-.26A7.05,7.05,0,0,1,278.25,231.33ZM262.87,235l4.18-9.55-1.29-.56-4.18,9.55Zm-.5-134.49-5.64-9.33-1.22.74,3.88,6.42-10.7-2.8,5.61,9.29,1.22-.74-3.84-6.33ZM260,228.07a5.17,5.17,0,0,0,.6-3.85,5.85,5.85,0,0,0-3-3.65l-2.18-1.29-5.32,9,2.19,1.31a5.86,5.86,0,0,0,4.59.88A5.05,5.05,0,0,0,260,228.07Zm-8.16-9.61.9-1.1-4.49-3.66-6.57,8.08,4.48,3.65.88-1.09-3.39-2.75,2.28-2.78,3.37,2.75.89-1.09-3.38-2.75,1.64-2Zm-.6-111.19-6.51-8.14-1.09.88,6.51,8.14Zm-5.49,4.79-6.32-6.41,1.78-1.75-1-1-4.52,4.47,1,1,1.76-1.75,6.32,6.41Zm-7.57,106.75,6.29-9.3-8,2.68,3.69-7.57-10,5,.91,1,6.19-3.09-3.37,6.91,7.25-2.4-3.86,5.67Zm1.9-100.57,1-1.3-5.38-.31a3.87,3.87,0,0,0,.41-2.39,2.79,2.79,0,0,0-1-1.66,2.67,2.67,0,0,0-2.36-.47,4.3,4.3,0,0,0-2.32,1.66L229,115.56l8.27,6.36.87-1.14-3.4-2.61.2-.25Zm-6.61,10.53a3.82,3.82,0,0,0,.39-3.11,4.26,4.26,0,0,0-2.17-2.42L226,120.1l-.68,1.25,5.84,3.19a2.8,2.8,0,0,1,1.44,1.56,2.52,2.52,0,0,1-.3,2.05,2.39,2.39,0,0,1-1.61,1.32,3.17,3.17,0,0,1-2.25-.44L222.79,126l-.68,1.25,5.4,2.94a4.77,4.77,0,0,0,3.55.67A3.91,3.91,0,0,0,233.5,128.77Zm-.09,66.38L230.85,190l-9.35,4.59.62,1.29,4.48-2.21,1.93,3.91,1.25-.63L227.86,193l2.34-1.16,1.93,3.92Zm-4.12-57.09a6.44,6.44,0,0,0,.27-3.16l-1.53-.53a6,6,0,0,1-.13,3.07,4.53,4.53,0,0,1-2.13,2.65,3.84,3.84,0,0,1-3.16.26,3.79,3.79,0,0,1-2.32-2.11,4.3,4.3,0,0,1-.12-3.29,7.13,7.13,0,0,1,1.78-2.66l-1.52-.52a8.08,8.08,0,0,0-1.67,2.77,5.64,5.64,0,0,0,.2,4.38,5.37,5.37,0,0,0,7.43,2.51A5.77,5.77,0,0,0,229.29,138.06Zm-1.59,47.75a5.55,5.55,0,0,0,.42-4.31,5.74,5.74,0,0,0-2.7-3.48,5.17,5.17,0,0,0-4.19-.53,5.38,5.38,0,0,0-3.35,2.75,5.6,5.6,0,0,0-.42,4.36,5.66,5.66,0,0,0,2.72,3.45,5.45,5.45,0,0,0,4.31.47A5.13,5.13,0,0,0,227.7,185.81ZM222,161.62a2.45,2.45,0,1,0-2.44,2.44A2.45,2.45,0,0,0,222,161.62Z"/><polygon class="cls-1" points="351.81 106.74 350.8 107.76 349.02 106.03 342.76 112.48 341.74 111.5 348.02 105.03 346.23 103.32 347.22 102.29 351.81 106.74"/><path class="cls-1" d="M345.63,215.84a5.15,5.15,0,0,1,1.18,3.75,5.77,5.77,0,0,1-2.36,4l-1.94,1.64-6.71-8,1.93-1.63a5.77,5.77,0,0,1,4.44-1.65A5.2,5.2,0,0,1,345.63,215.84Zm-.38,4.28a3.3,3.3,0,0,0,.05-1.71,3.55,3.55,0,0,0-.8-1.61,3.72,3.72,0,0,0-1.92-1.24,3.32,3.32,0,0,0-2.08.06,7.29,7.29,0,0,0-2.16,1.37l-.55.46,4.9,5.83.06,0a17.58,17.58,0,0,0,1.74-1.65A4.11,4.11,0,0,0,345.25,220.12Z"/><path class="cls-3" d="M345.3,218.41a3.3,3.3,0,0,1-.05,1.71,4.11,4.11,0,0,1-.76,1.47,17.58,17.58,0,0,1-1.74,1.65l-.06,0-4.9-5.83.55-.46a7.29,7.29,0,0,1,2.16-1.37,3.32,3.32,0,0,1,2.08-.06,3.72,3.72,0,0,1,1.92,1.24A3.55,3.55,0,0,1,345.3,218.41Z"/><path class="cls-4" d="M344,130.81v17.76H333.29c-.31.64-1.16,1.69-3.42,1.69s-3.11-1-3.42-1.69H315.76V130.81h1.16v16.6h10.42l.08.49s.28,1.21,2.45,1.21,2.44-1.17,2.45-1.22l.08-.49h10.42v-16.6Z"/><path class="cls-4" d="M342.14,128.48V146.4h-6.76l-.91.08-.29,0-.13,0h-.11l-.28,0h-.16l-.13,0h-.05l-.1,0-.13,0-.2.05a1.55,1.55,0,0,0-.23.06l-.11,0-.13,0-.13,0-.07,0-.11,0-.07,0-.06,0h0l-.06,0-.1,0-.09,0-.1,0-.19.09-.16.08-.16.09-.06,0-.08.05,0,0h0l-.06.05,0,0-.07.07s0,0,0,0l0,0-.05.06,0,0,0,0v0l0,.05,0,0v.13l-.05.06v.12h-1.16c0-.62-.76-1.07-1.76-1.37a15.29,15.29,0,0,0-3.74-.56h-6.2V128.48h6.21c.56,0,4.56.14,6.07,1.71,1.51-1.57,5.51-1.7,6.06-1.71ZM341,145.25V129.63h-5.05c-1.79,0-5.49.56-5.49,1.93v14.92l.05,0,.22-.13.21-.11.25-.1.11-.05.11,0,.07,0,.08-.08h.14l.07,0,.12,0,.08,0,.3-.09.12,0,.25-.06.22-.05.14,0,.11,0h.06l.14,0,.08,0h.09l.29-.05.13,0H334l.32,0c.32,0,.64-.07,1-.09l.42,0H341Zm-11.7,1.25V131.56c0-1.24-3.28-1.88-5.5-1.93h-5v15.62h5.05C324.3,145.26,327.52,145.37,329.29,146.5Z"/><path class="cls-1" d="M341.36,97.1l-2.45,11.64-1.2-.89.61-2.86-3.57-2.62-2.55,1.44-1.19-.88Zm-2.78,6.61.85-4-3.55,2Z"/><path class="cls-1" d="M341,129.63v15.62h-5.26l-.42,0c-.33,0-.65.05-1,.09l-.32,0h-.13l-.13,0-.29.05h-.09l-.08,0-.14,0h-.06l-.11,0-.14,0-.22.05-.25.06-.12,0-.3.09-.08,0-.12,0-.07,0h-.14l-.08.08-.07,0-.11,0-.11.05-.25.1-.21.11-.22.13-.05,0V131.56c0-1.37,3.7-1.89,5.49-1.93Zm-3.8,11a1.45,1.45,0,0,0,.5-1.08,1.23,1.23,0,0,0-.16-.63,1.38,1.38,0,0,0-.41-.45,4.92,4.92,0,0,0-.71-.37c-.43-.17-.65-.37-.65-.61a.4.4,0,0,1,.13-.31.37.37,0,0,1,.29-.13,1.78,1.78,0,0,1,.74.3l.64-.71a1.92,1.92,0,0,0-1.34-.5,1.5,1.5,0,0,0-1.09.4,1.36,1.36,0,0,0-.42,1,1.31,1.31,0,0,0,.13.57,1.17,1.17,0,0,0,.32.42,2.83,2.83,0,0,0,.65.31c.53.19.79.41.79.66a.51.51,0,0,1-.17.35.55.55,0,0,1-.36.17,1.29,1.29,0,0,1-.86-.47l-.68.79a2.15,2.15,0,0,0,1.48.7A1.71,1.71,0,0,0,337.19,140.66Z"/><path class="cls-1" d="M294.35,97a64.58,64.58,0,1,1-64.58,64.58A64.65,64.65,0,0,1,294.35,97ZM344,148.57V130.81h-1.15v16.6H332.41v-.5l.13,0,.11,0a1.55,1.55,0,0,1,.23-.06l.2-.05.13,0,.1,0h.05l.13,0h.16l.28,0h.11l.13,0,.29,0,.91-.08h6.76V128.48h-6.21c-.55,0-4.55.14-6.06,1.71-1.51-1.57-5.51-1.7-6.07-1.71h-6.21V146.4h6.2a15.29,15.29,0,0,1,3.74.56l-.19.45H316.92v-16.6h-1.16v17.76h10.69c.31.64,1.16,1.69,3.42,1.69s3.11-1,3.42-1.69Zm-7.14,41a20.33,20.33,0,0,0,2.29-10.41l-.3-2.92-1.32,2.62a21.49,21.49,0,0,1-11.18,10.13c5.73-4.44,8.22-9.17,9.28-12.66a17.57,17.57,0,0,0,.7-8.26l-.37-1.71-1.14,1.35c-.09.12-9.73,11.57-21.87,11.11-1.28,0-2.59-.11-4-.18a104.69,104.69,0,0,0-13.52-.11l.1-4c2.69-.94,6-2.65,6.07-6.49.05-3.66-3.29-6-5.29-7.06l-.43-.22.26-10.33.08,0c3.53-1.85,7.29-4.23,7.29-9a8.7,8.7,0,0,0-4-7.64,30.38,30.38,0,0,0-2.87-1.45l.34-13.35c1.76.79,8.1,2.86,10.47,1.64a1.83,1.83,0,0,0,1-1.44c.63-4.82-6.32-6.49-8.47-6.88a16.84,16.84,0,0,0-2.88-.28l.11-3.93a4.66,4.66,0,1,0-5.73,0l.11,4.39-.5.09c-5.29,1-10.9,5.32-10.9,11.46,0,5.81,4.82,9.19,8.45,11.23a34.3,34.3,0,0,0,3.58,1.78l.24,9.69c-.77.41-1.56.82-2.45,1.27-2.91,1.48-5.88,3.54-5.88,7.69s3.61,5.92,6.24,7.28l.05,0c.7.36,1.43.67,2.22,1l.27.11.19,7.66c-3.72,2-5.9,4-6.45,6a2.89,2.89,0,0,0,.22,2.31l.07.11a21,21,0,0,0-8.46,5c-2.59,2.58-4.76,5-6.49,6.94-1,1.13-2.07,2.3-2.8,3,.75-3,3.94-7.27,7-11.43.7-.93,1.42-1.92,2.11-2.85,4.73-6.54,5.57-10.12,5.85-11.3,1.26-5.4-.2-8.88-.38-9.26-2.6-6.62-8.26-6.29-8.94-6.22a12,12,0,0,0-8.91,3.66c-3.67,4-3.57,9.83-3.53,10.64,0,.07,0,.13,0,.21a17.89,17.89,0,0,1-1.48,5.17c-.66,1.7-.56,2.77.3,3.17a1.13,1.13,0,0,0,.48.11c1.4,0,3.43-2.36,6-7,.87-1.54,1.9-2,3.61-2.85l1.88-.91a8,8,0,0,1,1.34-.6l.13-.06a1.33,1.33,0,0,1,.52-.13c.07.15.5,1.34-2,6.67a46.34,46.34,0,0,1-7.35,10.39c-4.08,4.76-8,9.29-8,16.12a19.79,19.79,0,0,0,.39,3.85c1.14,6,5.41,11.19,12,14.75,6.09,3.26,13.84,5,22.66,5,1.69,0,3.41-.06,5.17-.18,16-1.14,25.59-7.9,30.84-13.36a34.23,34.23,0,0,0,7.69-11.82l1-2.92-2.34,2a26.44,26.44,0,0,1-13.41,5.62C330.53,198.46,334.77,193.53,336.83,189.52Zm-64.35-41V130.81h-1.16v16.6H260.91v-.5l.13,0,.11,0,.23-.06.2-.05.13,0,.1,0h.05l.14,0h.15l.28,0h.11l.13,0,.3,0,.9-.08h6.77V128.48h-6.22c-.55,0-4.55.14-6.06,1.71-1.51-1.57-5.51-1.7-6.07-1.71h-6.2V146.4h6.19A15.29,15.29,0,0,1,256,147l-.19.45H245.42v-16.6h-1.16v17.76H255c.31.64,1.16,1.69,3.42,1.69s3.11-1,3.42-1.69Z"/><polygon class="cls-3" points="339.43 99.73 338.58 103.71 335.88 101.73 339.43 99.73"/><path class="cls-4" d="M339.12,179.11a20.33,20.33,0,0,1-2.29,10.41c-2.06,4-6.3,8.94-14.95,11.85a26.44,26.44,0,0,0,13.41-5.62l2.34-2-1,2.92A34.23,34.23,0,0,1,329,208.48c-5.25,5.46-14.87,12.22-30.84,13.36-1.76.12-3.48.18-5.17.18-8.82,0-16.57-1.69-22.66-5-6.61-3.56-10.88-8.79-12-14.75a19.79,19.79,0,0,1-.39-3.85c0-6.83,3.88-11.36,8-16.12A46.34,46.34,0,0,0,273.21,172c2.53-5.33,2.1-6.52,2-6.67a1.33,1.33,0,0,0-.52.13l-.13.06a8,8,0,0,0-1.34.6l-1.88.91c-1.71.81-2.74,1.31-3.61,2.85-2.61,4.69-4.64,7-6,7a1.13,1.13,0,0,1-.48-.11c-.86-.4-1-1.47-.3-3.17a17.89,17.89,0,0,0,1.48-5.17c0-.08,0-.14,0-.21,0-.81-.14-6.64,3.53-10.64a12,12,0,0,1,8.91-3.66c.68-.07,6.34-.4,8.94,6.22.18.38,1.64,3.86.38,9.26-.28,1.18-1.12,4.76-5.85,11.3-.69.93-1.41,1.92-2.11,2.85-3.09,4.16-6.28,8.45-7,11.43.73-.72,1.77-1.89,2.8-3,1.73-1.94,3.9-4.36,6.49-6.94a21,21,0,0,1,8.46-5l.89,1.33.24-1.67a35.56,35.56,0,0,1,5.21-1l.14,5.27v.16a.93.93,0,0,0,1.84,0h0V184l.14-5.5a104.69,104.69,0,0,1,13.52.11c1.39.07,2.7.14,4,.18,12.14.46,21.78-11,21.87-11.11l1.14-1.35.37,1.71a17.57,17.57,0,0,1-.7,8.26c-1.06,3.49-3.55,8.22-9.28,12.66a21.49,21.49,0,0,0,11.18-10.13l1.32-2.62Z"/><path class="cls-4" d="M337.69,139.58a1.45,1.45,0,0,1-.5,1.08,1.71,1.71,0,0,1-1.18.45,2.15,2.15,0,0,1-1.48-.7l.68-.79a1.29,1.29,0,0,0,.86.47.55.55,0,0,0,.36-.17.51.51,0,0,0,.17-.35c0-.25-.26-.47-.79-.66a2.83,2.83,0,0,1-.65-.31,1.17,1.17,0,0,1-.32-.42,1.31,1.31,0,0,1-.13-.57,1.36,1.36,0,0,1,.42-1,1.5,1.5,0,0,1,1.09-.4,1.92,1.92,0,0,1,1.34.5l-.64.71a1.78,1.78,0,0,0-.74-.3.37.37,0,0,0-.29.13.4.4,0,0,0-.13.31c0,.24.22.44.65.61a4.92,4.92,0,0,1,.71.37,1.38,1.38,0,0,1,.41.45A1.23,1.23,0,0,1,337.69,139.58Z"/><path class="cls-1" d="M336.21,225a4.25,4.25,0,0,1,.6,3.2,3.75,3.75,0,0,1-1.93,2.45,3.88,3.88,0,0,1-3.15.51,4.79,4.79,0,0,1-2.7-2.39l-3.11-5.32,1.22-.72,3.25,5.52a3.19,3.19,0,0,0,1.69,1.55,2.46,2.46,0,0,0,2.06-.3,2.55,2.55,0,0,0,1.31-1.6,2.77,2.77,0,0,0-.43-2.09l-3.35-5.74,1.23-.72Z"/><polygon class="cls-1" points="333.42 92.45 328.34 101.54 327.11 100.86 332.19 91.75 333.42 92.45"/><path class="cls-1" d="M332.42,146.9v.5h0l-.08.49c0,.05-.28,1.22-2.45,1.22s-2.44-1.17-2.45-1.21l-.08-.49.19-.45c1,.3,1.76.75,1.76,1.37h1.16v-.12l.05-.06V148l0,0,0-.05v0l0,0,0,0,.05-.06,0,0s0,0,0,0l.07-.07,0,0,.06-.05h0l0,0,.08-.05.06,0,.16-.09.16-.08.19-.09.1,0,.09,0,.1,0,.06,0h0l.06,0,.07,0,.11,0,.07,0Z"/><path class="cls-1" d="M329.29,131.56V146.5c-1.77-1.13-5-1.24-5.49-1.25h-5.05V129.63h5C326,129.68,329.29,130.32,329.29,131.56Zm-2,9.49-.62-4.81h-1.19l-.9,2.88-.9-2.88h-1.24l-.59,4.81h1l.4-3.42,1.09,3.42h.47l1.06-3.39.42,3.39Z"/><path class="cls-1" d="M327.94,89.86l-.6,1.51a7,7,0,0,0-2.57-1.93,4.25,4.25,0,0,0-3.28-.06,4,4,0,0,0-2.14,5.38A4.58,4.58,0,0,0,321.88,97a6,6,0,0,0,3.06.29l-.62,1.52a6.36,6.36,0,0,1-3.12-.47A5.72,5.72,0,0,1,318,95.31a5.25,5.25,0,0,1-.11-4.3,5.16,5.16,0,0,1,3-3,5.6,5.6,0,0,1,4.38,0A8.26,8.26,0,0,1,327.94,89.86Z"/><polygon class="cls-4" points="326.66 136.24 327.28 141.05 326.29 141.05 325.87 137.66 324.81 141.05 324.34 141.05 323.25 137.63 322.85 141.05 321.84 141.05 322.44 136.24 323.67 136.24 324.57 139.12 325.47 136.24 326.66 136.24"/><polygon class="cls-1" points="321.28 227.05 324.64 235.4 323.34 235.92 319.99 227.58 317.69 228.5 317.15 227.18 323.06 224.8 323.59 226.12 321.28 227.05"/><path class="cls-1" d="M316.39,235.46a3,3,0,0,1-.37,2.39,3.2,3.2,0,0,1-2,1.44,3.81,3.81,0,0,1-2.41-.13,4.49,4.49,0,0,1-2-1.7l1.27-.74a2.59,2.59,0,0,0,2.76,1.13,1.83,1.83,0,0,0,1.12-.77,1.54,1.54,0,0,0,.22-1.27,1.79,1.79,0,0,0-.46-.76,2.74,2.74,0,0,0-.84-.52,6.05,6.05,0,0,0-1.39-.3,9.66,9.66,0,0,1-1.46-.31,3.41,3.41,0,0,1-1-.49,3.21,3.21,0,0,1-.7-.67,2.7,2.7,0,0,1-.36-.81,2.43,2.43,0,0,1,.41-2.07,3.19,3.19,0,0,1,1.91-1.3,4.19,4.19,0,0,1,1.77-.07,3.5,3.5,0,0,1,1.68.74l-.89,1.18a3.83,3.83,0,0,0-1-.49,1.82,1.82,0,0,0-1.1,0,2.07,2.07,0,0,0-1.12.63,1,1,0,0,0-.24,1,1.09,1.09,0,0,0,.6.71,6,6,0,0,0,1.58.42,9,9,0,0,1,1.71.4,4.16,4.16,0,0,1,1.09.57,3.11,3.11,0,0,1,.75.79A3.41,3.41,0,0,1,316.39,235.46Z"/><path class="cls-1" d="M313.43,85.69a5.23,5.23,0,0,1,.89,4.12,5.34,5.34,0,0,1-2.42,3.57,5.86,5.86,0,0,1-8-1.6,5.37,5.37,0,0,1-.88-4.24,5.14,5.14,0,0,1,2.44-3.45,5.89,5.89,0,0,1,7.95,1.6Zm-.61,3.87a3.85,3.85,0,0,0-.65-3.09,4.3,4.3,0,0,0-2.77-1.76,4.2,4.2,0,0,0-3.14.6,4,4,0,0,0-1.77,2.58,3.92,3.92,0,0,0,.67,3.09A4.43,4.43,0,0,0,308,92.75a4,4,0,0,0,3.08-.62A3.88,3.88,0,0,0,312.82,89.56Z"/><path class="cls-3" d="M312.17,86.47a4,4,0,0,1-1.11,5.66,4,4,0,0,1-3.08.62A4.43,4.43,0,0,1,305.16,91a3.92,3.92,0,0,1-.67-3.09,4,4,0,0,1,1.77-2.58,4.2,4.2,0,0,1,3.14-.6A4.3,4.3,0,0,1,312.17,86.47Z"/><path class="cls-4" d="M300,112.19c2.15.39,9.1,2.06,8.47,6.88a1.83,1.83,0,0,1-1,1.44c-2.37,1.22-8.71-.85-10.47-1.64l-.34,13.35a30.38,30.38,0,0,1,2.87,1.45,8.7,8.7,0,0,1,4,7.64c0,4.76-3.76,7.14-7.29,9l-.08,0-.26,10.33.43.22c2,1.07,5.34,3.4,5.29,7.06-.06,3.84-3.38,5.55-6.07,6.49l-.1,4c-.72.06-1.42.13-2.13.21l-.08-3.38c-4.66,2-5.13,4.34-5.13,4.36v0c-.38.1-.76.21-1.13.34l-.07-.11a2.89,2.89,0,0,1-.22-2.31c.55-2,2.73-4,6.45-6l-.19-7.66-.27-.11c-.79-.33-1.52-.64-2.22-1l-.05,0c-2.63-1.36-6.24-3.23-6.24-7.28s3-6.21,5.88-7.69c.89-.45,1.68-.86,2.45-1.27l-.24-9.69a34.3,34.3,0,0,1-3.58-1.78c-3.63-2-8.45-5.42-8.45-11.23,0-6.14,5.61-10.49,10.9-11.46l.5-.09-.11-4.39a4.65,4.65,0,1,1,5.73,0l-.11,3.93A16.84,16.84,0,0,1,300,112.19Zm7.17,6.7c.49-3.75-6.08-5.16-7.41-5.41a17.15,17.15,0,0,0-3.08-.25,29,29,0,0,0-5.33.53c-4.76.87-9.82,4.73-9.82,10.16,0,5.06,4.16,8,7.78,10.07a32.36,32.36,0,0,0,2.89,1.48l-.1-4-1.12-.65c-1.31-.78-5.57-3.6-5.57-6.88,0-3.77,4.38-5.45,5.81-6,1-.39,4.32-1.29,6.06-.36,1.32.71,7.7,2.71,9.54,1.76A.53.53,0,0,0,307.16,118.89Zm-5,22.42a7.44,7.44,0,0,0-3.39-6.52c-.62-.37-1.37-.73-2.23-1.13l-.09,3.53a4.59,4.59,0,0,1,2.85,4.11c0,2.61-2.2,4.34-4.05,5.33-1.51.81-2.91,1.55-4.66,2.44-2.67,1.36-5.15,3.09-5.15,6.51,0,3.25,3.07,4.84,5.53,6.11l0,0c.57.3,1.2.57,1.85.84l-.05-1.81c-.63-.27-1.22-.52-1.74-.79-1.62-.84-3.84-2-3.84-4.37s1.51-3.28,4-4.45c1.08-.51,2.16-1,3-1.39l1.35-.61C298.93,147.38,302.18,145.33,302.18,141.31Zm-1.91,26.62c0-2.88-2.69-4.84-4.44-5.79l0,1.71.21.11a4.34,4.34,0,0,1,2.78,4c0,2.23-1.68,3.23-3.71,4.22-3.61,1.71-5.42,3.22-6.32,4.35a16.68,16.68,0,0,1,6-3.18C298.52,172.06,300.23,170.39,300.27,167.93ZM298,141.3a3,3,0,0,0-1.57-2.6l-.14,5.68A4.11,4.11,0,0,0,298,141.3Zm-.54,26.64a2.8,2.8,0,0,0-1.71-2.61l-.13,5C296.88,169.66,297.46,169,297.46,167.94Zm-4.66-8.65-.19-7.35-.82.38c-2.57,1.22-3.22,1.73-3.22,3.26s1.36,2.28,3.13,3.2C292,159,292.4,159.12,292.8,159.29Zm-.75-29.36-.28-10.79a.32.32,0,0,0-.09,0c-3.33,1.28-5,2.84-5,4.77,0,2.66,4.1,5.26,4.93,5.75Z"/><path class="cls-1" d="M299.75,113.48c1.33.25,7.9,1.66,7.41,5.41a.53.53,0,0,1-.35.44c-1.84,1-8.22-1-9.54-1.76-1.74-.93-5,0-6.06.36-1.43.56-5.81,2.24-5.81,6,0,3.28,4.26,6.1,5.57,6.88l1.12.65.1,4A32.36,32.36,0,0,1,289.3,134c-3.62-2-7.78-5-7.78-10.07,0-5.43,5.06-9.29,9.82-10.16a29,29,0,0,1,5.33-.53A17.15,17.15,0,0,1,299.75,113.48Z"/><path class="cls-1" d="M298.79,134.79a7.44,7.44,0,0,1,3.39,6.52c0,4-3.25,6.07-6.56,7.82l-1.35.61c-.88.39-2,.88-3,1.39-2.47,1.17-4,2-4,4.45s2.22,3.53,3.84,4.37c.52.27,1.11.52,1.74.79l.05,1.81c-.65-.27-1.28-.54-1.85-.84l0,0c-2.46-1.27-5.53-2.86-5.53-6.11,0-3.42,2.48-5.15,5.15-6.51,1.75-.89,3.15-1.63,4.66-2.44,1.85-1,4.05-2.72,4.05-5.33a4.59,4.59,0,0,0-2.85-4.11l.09-3.53C297.42,134.06,298.17,134.42,298.79,134.79Z"/><path class="cls-1" d="M295.83,162.14c1.75,1,4.48,2.91,4.44,5.79,0,2.46-1.75,4.13-5.56,5.4a16.68,16.68,0,0,0-6,3.18c.9-1.13,2.71-2.64,6.32-4.35,2-1,3.71-2,3.71-4.22a4.34,4.34,0,0,0-2.78-4l-.21-.11Z"/><path class="cls-1" d="M299.15,88.76a3.42,3.42,0,0,1,.14,1.07,2.93,2.93,0,0,1-1,2.18,3.21,3.21,0,0,1-2.31.86,4.07,4.07,0,0,1-2.3-.77,4.52,4.52,0,0,1-1.48-2.2l1.43-.36A2.56,2.56,0,0,0,296,91.36a1.76,1.76,0,0,0,1.29-.43,1.51,1.51,0,0,0,.54-1.16,1.41,1.41,0,0,0-.25-.86,2.49,2.49,0,0,0-.65-.72,6.18,6.18,0,0,0-1.25-.66,10.28,10.28,0,0,1-1.34-.71,3.65,3.65,0,0,1-.8-.72,3.88,3.88,0,0,1-.49-.84,2.8,2.8,0,0,1-.13-.88,2.47,2.47,0,0,1,1-1.89,3.15,3.15,0,0,1,2.2-.72,4.27,4.27,0,0,1,1.72.4,3.56,3.56,0,0,1,1.42,1.16l-1.17.89a4.5,4.5,0,0,0-.81-.72,1.92,1.92,0,0,0-1.06-.26,2,2,0,0,0-1.25.31,1.05,1.05,0,0,0-.11,1.73,5.62,5.62,0,0,0,1.4.84,10,10,0,0,1,1.55.83,4,4,0,0,1,.88.85A3.25,3.25,0,0,1,299.15,88.76Z"/><polygon class="cls-1" points="298.81 239.96 298.84 241.36 294.04 241.47 293.81 231.06 295.21 231.01 295.41 240.03 298.81 239.96"/><path class="cls-1" d="M296.43,138.7a3,3,0,0,1,1.57,2.6,4.11,4.11,0,0,1-1.71,3.08Z"/><path class="cls-1" d="M295.75,165.33a2.8,2.8,0,0,1,1.71,2.61c0,1.08-.58,1.72-1.84,2.44Z"/><path class="cls-4" d="M295.42,178.48l-.14,5.5v.12h0a.93.93,0,0,1-1.84,0V184l-.14-5.27C294,178.61,294.7,178.54,295.42,178.48Z"/><path class="cls-1" d="M293.21,175.31l.08,3.38a35.56,35.56,0,0,0-5.21,1v0S288.55,177.34,293.21,175.31Z"/><path class="cls-1" d="M292.61,151.94l.19,7.35c-.4-.17-.78-.34-1.1-.51-1.77-.92-3.13-1.74-3.13-3.2s.65-2,3.22-3.26Z"/><path class="cls-1" d="M291.77,119.14l.28,10.79-.4-.24c-.83-.49-4.93-3.09-4.93-5.75,0-1.93,1.63-3.49,5-4.77A.32.32,0,0,1,291.77,119.14Z"/><path class="cls-1" d="M285.84,230.12l3.58,11.33-1.48-.19-.88-2.78-4.39-.53-1.52,2.5-1.45-.18Zm.83,7.11-1.22-3.88-2.11,3.49Z"/><path class="cls-1" d="M288.91,89.81a2.9,2.9,0,0,1-.68,2.31,3.19,3.19,0,0,1-2.15,1.18,3.93,3.93,0,0,1-2.38-.44,4.5,4.5,0,0,1-1.79-2l1.37-.56a2.55,2.55,0,0,0,2.58,1.45,1.86,1.86,0,0,0,1.22-.61,1.5,1.5,0,0,0,.37-1.23,1.58,1.58,0,0,0-.36-.82,2.33,2.33,0,0,0-.76-.61A8.67,8.67,0,0,0,285,88a8.26,8.26,0,0,1-1.43-.49,3.9,3.9,0,0,1-.89-.61,2.45,2.45,0,0,1-.6-.76,2.13,2.13,0,0,1-.27-.85,2.49,2.49,0,0,1,.68-2,3.2,3.2,0,0,1,2.07-1,4.23,4.23,0,0,1,1.75.15,3.43,3.43,0,0,1,1.58,1l-1,1a5.26,5.26,0,0,0-.92-.6,2,2,0,0,0-1.09-.1,2.12,2.12,0,0,0-1.19.49,1.11,1.11,0,0,0-.37,1,1.06,1.06,0,0,0,.52.77,5.81,5.81,0,0,0,1.51.63,12.41,12.41,0,0,1,1.64.6,4,4,0,0,1,1,.71,3.13,3.13,0,0,1,.65.88A3.2,3.2,0,0,1,288.91,89.81Z"/><path class="cls-4" d="M288.08,179.71l-.24,1.67-.89-1.33C287.32,179.92,287.7,179.81,288.08,179.71Z"/><polygon class="cls-3" points="285.45 233.35 286.67 237.23 283.34 236.84 285.45 233.35"/><path class="cls-1" d="M272.17,84.71l7.68,9.06-1.43.41L276.53,92l-4.25,1.2L271.85,96l-1.43.41ZM275.68,91l-2.63-3.12-.58,4Z"/><path class="cls-1" d="M278.71,229.78l-.46,1.55a7.05,7.05,0,0,0-2.75-1.68,4.24,4.24,0,0,0-3.25.26,3.93,3.93,0,0,0-1.62,5.55,4.52,4.52,0,0,0,2.73,2,6.31,6.31,0,0,0,3.06,0L276,239a6.48,6.48,0,0,1-3.15-.14,5.85,5.85,0,0,1-3.52-2.76,5.39,5.39,0,0,1,2.22-7.53,5.69,5.69,0,0,1,4.36-.4A8.46,8.46,0,0,1,278.71,229.78Z"/><path class="cls-2" d="M276.13,225.2c.59.17,1.19.33,1.78.48C277.32,225.53,276.72,225.37,276.13,225.2Z"/><polygon class="cls-3" points="273.05 87.83 275.68 90.95 272.46 91.86 273.05 87.83"/><path class="cls-2" d="M274.36,98.56l1.76-.53Z"/><path class="cls-4" d="M272.48,130.81v17.76H261.79c-.31.64-1.16,1.69-3.42,1.69s-3.11-1-3.42-1.69H244.26V130.81h1.16v16.6h10.42l.08.49s.28,1.21,2.45,1.21,2.44-1.17,2.45-1.22l.08-.49h10.42v-16.6Z"/><path class="cls-4" d="M270.65,128.48V146.4h-6.77l-.9.08-.3,0-.13,0h-.11l-.28,0H262l-.14,0h-.05l-.1,0-.13,0-.2.05-.23.06-.11,0-.13,0-.12,0-.08,0-.1,0-.08,0-.13,0-.1,0-.09,0-.1,0-.19.09-.16.08-.16.09-.06,0-.08.05,0,0h0l-.06.05,0,0-.07.06,0,0,0,0-.06.07,0,0,0,0v0l0,.05,0,0v.1l-.05.06v.14h-1.16c0-.62-.76-1.07-1.76-1.37a15.29,15.29,0,0,0-3.74-.56H246.1V128.48h6.2c.56,0,4.56.14,6.07,1.71,1.51-1.57,5.51-1.7,6.06-1.71Zm-1.16,16.77V129.63h-5.05c-1.78,0-5.49.56-5.49,1.93v14.92l.05,0a1.71,1.71,0,0,1,.23-.13l.2-.11.25-.1.11-.05.11,0,.07,0,.08-.08h.14l.07,0,.12,0,.09,0,.29-.09.12,0,.26-.06.21-.05.14,0,.12,0h.05l.14,0,.08,0H262l.3-.05.12,0h.13l.32,0c.32,0,.64-.07,1-.09l.42,0h5.26Zm-11.7,1.25V131.56c0-1.24-3.28-1.88-5.5-1.93h-5v15.62h5.05C252.8,145.26,256,145.37,257.79,146.5Z"/><path class="cls-2" d="M268.83,100.59q1.82-.77,3.66-1.41Q270.65,99.82,268.83,100.59Z"/><path class="cls-1" d="M269.49,129.63v15.62h-5.26l-.42,0c-.33,0-.65.05-1,.09l-.32,0h-.13l-.12,0-.3.05h-.09l-.08,0-.14,0h-.05l-.12,0-.14,0-.21.05-.26.06-.12,0-.29.09-.09,0-.12,0-.07,0h-.14L260,146l-.07,0-.11,0-.11.05-.25.1-.2.11a1.71,1.71,0,0,0-.23.13l-.05,0V131.56c0-1.37,3.71-1.89,5.49-1.93Zm-2.82,11.42-2-4.81h-.81L262,141.05h1l.38-1h1.85l.39,1Z"/><rect class="cls-1" x="259.11" y="229.26" width="10.42" height="1.41" transform="translate(-52.24 380.1) rotate(-66.4)"/><path class="cls-4" d="M264.71,136.24l2,4.81h-1l-.39-1h-1.85l-.38,1h-1l1.92-4.81Zm.17,3-.57-1.42-.57,1.42Z"/><polygon class="cls-1" points="264.31 137.81 264.88 139.23 263.74 139.23 264.31 137.81"/><polygon class="cls-1" points="256.73 91.2 262.37 100.53 251.69 97.78 255.52 104.11 254.3 104.85 248.69 95.56 259.39 98.36 255.51 91.94 256.73 91.2"/><path class="cls-1" d="M260.92,146.9v.5h0l-.08.49c0,.05-.28,1.22-2.45,1.22s-2.44-1.17-2.45-1.21l-.08-.49L256,147c1,.3,1.76.75,1.76,1.37H259v-.14l.05-.06V148l0,0,0-.05v0l0,0,0,0,.06-.07,0,0,0,0,.07-.06,0,0,.06-.05h0l0,0,.08-.05.06,0,.16-.09.16-.08.19-.09.1,0,.09,0,.1,0,.13,0,.08,0,.1,0,.08,0Z"/><path class="cls-1" d="M260.63,224.22a5.17,5.17,0,0,1-.6,3.85,5.05,5.05,0,0,1-3.15,2.36,5.86,5.86,0,0,1-4.59-.88l-2.19-1.31,5.32-9,2.18,1.29A5.85,5.85,0,0,1,260.63,224.22Zm-1.86,3.1a3.61,3.61,0,0,0,.52-2.21,3.38,3.38,0,0,0-.72-2,7.82,7.82,0,0,0-2-1.58l-.61-.37-3.89,6.56.06.05a14.4,14.4,0,0,0,2.14,1.09,3.82,3.82,0,0,0,1.62.23,3.54,3.54,0,0,0,1.64-.51A3.74,3.74,0,0,0,258.77,227.32Z"/><path class="cls-3" d="M259.29,225.11a3.61,3.61,0,0,1-.52,2.21,3.74,3.74,0,0,1-1.26,1.3,3.54,3.54,0,0,1-1.64.51,3.82,3.82,0,0,1-1.62-.23,14.4,14.4,0,0,1-2.14-1.09l-.06-.05,3.89-6.56.61.37a7.82,7.82,0,0,1,2,1.58A3.38,3.38,0,0,1,259.29,225.11Z"/><path class="cls-1" d="M257.79,131.56V146.5c-1.76-1.13-5-1.24-5.49-1.25h-5.05V129.63h5C254.51,129.68,257.79,130.32,257.79,131.56Zm-3.5,9.27v-1.16a2.71,2.71,0,0,1-1.3.43,1.34,1.34,0,0,1-1-.38,1.44,1.44,0,0,1-.37-1,1.61,1.61,0,0,1,.35-1.08,1.2,1.2,0,0,1,.94-.41,2.8,2.8,0,0,1,1.37.47v-1.17a3.48,3.48,0,0,0-1.37-.32,2.24,2.24,0,0,0-1.68.72,2.48,2.48,0,0,0-.69,1.77,2.38,2.38,0,0,0,.68,1.74,2.17,2.17,0,0,0,1.65.71A4.63,4.63,0,0,0,254.29,140.83Z"/><path class="cls-2" d="M254,109.23c.55-.44,1.12-.86,1.69-1.27C255.13,108.37,254.56,108.79,254,109.23Z"/><path class="cls-4" d="M254.29,139.67v1.16a4.63,4.63,0,0,1-1.41.28,2.17,2.17,0,0,1-1.65-.71,2.38,2.38,0,0,1-.68-1.74,2.48,2.48,0,0,1,.69-1.77,2.24,2.24,0,0,1,1.68-.72,3.48,3.48,0,0,1,1.37.32v1.17a2.8,2.8,0,0,0-1.37-.47,1.2,1.2,0,0,0-.94.41,1.61,1.61,0,0,0-.35,1.08,1.44,1.44,0,0,0,.37,1,1.34,1.34,0,0,0,1,.38A2.71,2.71,0,0,0,254.29,139.67Z"/><polygon class="cls-1" points="252.76 217.36 251.87 218.46 248.48 215.69 246.84 217.72 250.22 220.47 249.33 221.56 245.96 218.81 243.68 221.59 247.07 224.34 246.19 225.43 241.71 221.78 248.28 213.7 252.76 217.36"/><polygon class="cls-1" points="244.76 99.13 251.27 107.27 250.18 108.15 243.67 100.01 244.76 99.13"/><path class="cls-2" d="M252.34,110.55c-1.63,1.36-3.22,2.8-4.74,4.32a66.13,66.13,0,0,0,0,93.5q1.65,1.65,3.39,3.17-1.74-1.51-3.4-3.17a66.15,66.15,0,0,1,0-93.5Q249.89,112.58,252.34,110.55Z"/><polygon class="cls-1" points="239.46 105.65 245.78 112.06 244.78 113.04 238.46 106.63 236.7 108.38 235.71 107.37 240.23 102.9 241.24 103.9 239.46 105.65"/><polygon class="cls-1" points="244.5 209.5 238.21 218.81 237.29 217.76 241.15 212.09 233.9 214.49 237.27 207.58 231.08 210.67 230.17 209.64 240.21 204.62 236.52 212.19 244.5 209.5"/><path class="cls-1" d="M241.1,116.94l-1,1.3-5.16-.32-.2.25,3.4,2.61-.87,1.14L229,115.56l1.39-1.79a4.3,4.3,0,0,1,2.32-1.66,2.67,2.67,0,0,1,2.36.47,2.79,2.79,0,0,1,1,1.66,3.87,3.87,0,0,1-.41,2.39Zm-7.33.47c1.31-1.63,1.46-2.84.47-3.6a1.56,1.56,0,0,0-1.09-.37,1.73,1.73,0,0,0-1,.43,8,8,0,0,0-1.23,1.33Z"/><path class="cls-3" d="M234.24,113.81c1,.76.84,2-.47,3.6l-2.89-2.21a8,8,0,0,1,1.23-1.33,1.73,1.73,0,0,1,1-.43A1.56,1.56,0,0,1,234.24,113.81Z"/><path class="cls-1" d="M233.89,125.66a3.82,3.82,0,0,1-.39,3.11,3.91,3.91,0,0,1-2.44,2,4.77,4.77,0,0,1-3.55-.67l-5.4-2.94.68-1.25,5.62,3.07a3.17,3.17,0,0,0,2.25.44,2.39,2.39,0,0,0,1.61-1.32,2.52,2.52,0,0,0,.3-2.05,2.8,2.8,0,0,0-1.44-1.56l-5.84-3.19.68-1.25,5.75,3.14A4.26,4.26,0,0,1,233.89,125.66Z"/><polygon class="cls-1" points="230.85 189.96 233.41 195.15 232.13 195.76 230.2 191.84 227.85 193 229.78 196.91 228.53 197.54 226.6 193.63 222.12 195.84 221.5 194.55 230.85 189.96"/><path class="cls-1" d="M229.56,134.9a6.44,6.44,0,0,1-.27,3.16,5.77,5.77,0,0,1-2.9,3.37,5.37,5.37,0,0,1-7.43-2.51,5.64,5.64,0,0,1-.2-4.38,8.08,8.08,0,0,1,1.67-2.77l1.52.52a7.13,7.13,0,0,0-1.78,2.66,4.3,4.3,0,0,0,.12,3.29,3.79,3.79,0,0,0,2.32,2.11,3.84,3.84,0,0,0,3.16-.26,4.53,4.53,0,0,0,2.13-2.65,6,6,0,0,0,.13-3.07Z"/><path class="cls-1" d="M228.12,181.5a5.55,5.55,0,0,1-.42,4.31,5.13,5.13,0,0,1-3.21,2.71,5.45,5.45,0,0,1-4.31-.47,5.66,5.66,0,0,1-2.72-3.45,5.6,5.6,0,0,1,.42-4.36,5.38,5.38,0,0,1,3.35-2.75,5.17,5.17,0,0,1,4.19.53A5.74,5.74,0,0,1,228.12,181.5Zm-1.7,3.57a4.29,4.29,0,0,0,.28-3.27,4.16,4.16,0,0,0-2-2.5,3.92,3.92,0,0,0-3.13-.36,3.79,3.79,0,0,0-2.4,2,4.3,4.3,0,0,0-.25,3.31,3.93,3.93,0,0,0,2,2.44,4,4,0,0,0,3.1.37A3.88,3.88,0,0,0,226.42,185.07Z"/><path class="cls-3" d="M226.7,181.8a4.29,4.29,0,0,1-.28,3.27,3.88,3.88,0,0,1-2.42,2,4,4,0,0,1-3.1-.37,3.93,3.93,0,0,1-2-2.44,4.3,4.3,0,0,1,.25-3.31,3.79,3.79,0,0,1,2.4-2,3.92,3.92,0,0,1,3.13.36A4.16,4.16,0,0,1,226.7,181.8Z"/><path class="cls-1" d="M219.59,159.17a2.45,2.45,0,1,1-2.45,2.45A2.45,2.45,0,0,1,219.59,159.17Z"/><path class="cls-3" d="M448,113v4.8a21.2,21.2,0,0,0-9.23-2.46,12.83,12.83,0,0,0-9.12,3.49,11.79,11.79,0,0,0,.09,17.24,13.52,13.52,0,0,0,9.49,3.47,18,18,0,0,0,8.77-2.61v4.85a19.23,19.23,0,0,1-9.14,2.24,17.23,17.23,0,0,1-12.33-4.88,15.67,15.67,0,0,1-5.11-11.77,15.44,15.44,0,0,1,5-11.59,16.86,16.86,0,0,1,12.12-4.83A24.38,24.38,0,0,1,448,113Z"/><path class="cls-3" d="M463.29,112h4.24V131a9.64,9.64,0,0,0,2,6.55,7.26,7.26,0,0,0,5.77,2.32,7.64,7.64,0,0,0,5.76-2.13,8.33,8.33,0,0,0,2.06-6V112h4.24v19.52a12.64,12.64,0,0,1-3.26,9.11,11.4,11.4,0,0,1-8.66,3.41,11.71,11.71,0,0,1-8.86-3.46q-3.32-3.47-3.32-10.21Z"/><path class="cls-3" d="M504.66,111.91h6.73a12.72,12.72,0,0,1,8.17,2.5,7.77,7.77,0,0,1,3.16,6.39,8.23,8.23,0,0,1-2,5.51,11.38,11.38,0,0,1-6.37,3.36l9,13.28h-4.86l-8.62-12.77h-1V143h-4.24Zm4.24,3.75v10.82q9.39.19,9.39-5.43a4.74,4.74,0,0,0-1.1-3.23,5.51,5.51,0,0,0-2.93-1.71A23.89,23.89,0,0,0,508.9,115.66Z"/><path class="cls-3" d="M537.49,111.91h19v4.24h-7.41V143h-4.19v-26.8h-7.38Z"/><path class="cls-3" d="M571.6,111.91h4.19v31H571.6Z"/><path class="cls-3" d="M592.8,110.67l23,23.59V111.91H620v32.48L597,120.9v22H592.8Z"/><path class="cls-3" d="M672.55,110.72,687.2,143h-4.44l-3.6-7.94H666L662.42,143H658Zm0,9.68-5,11.08h10Z"/><path class="cls-3" d="M720.49,115.37l-3.44,2.75a13.29,13.29,0,0,0-2.47-2.1,5.94,5.94,0,0,0-3.19-.7,6.22,6.22,0,0,0-3.71,1,3.16,3.16,0,0,0-1.42,2.66,3.22,3.22,0,0,0,1.24,2.49,17.21,17.21,0,0,0,4.23,2.37,30.15,30.15,0,0,1,4.66,2.39,12.16,12.16,0,0,1,2.74,2.45,9.7,9.7,0,0,1,1.59,2.82,9.42,9.42,0,0,1,.52,3.15,8.8,8.8,0,0,1-2.81,6.59,9.44,9.44,0,0,1-6.81,2.73,11.54,11.54,0,0,1-6.88-2.13,13.34,13.34,0,0,1-4.6-6.4l4.24-1.19q2.32,5.24,7.09,5.24a5.49,5.49,0,0,0,3.85-1.39,4.49,4.49,0,0,0,1.54-3.5,4.69,4.69,0,0,0-.81-2.53,7.2,7.2,0,0,0-2-2.11,20.94,20.94,0,0,0-3.8-1.89,26.38,26.38,0,0,1-4-2A10.38,10.38,0,0,1,703.8,124a9.1,9.1,0,0,1-1.5-2.44,7.08,7.08,0,0,1-.48-2.61,7.34,7.34,0,0,1,2.68-5.69,9.57,9.57,0,0,1,6.51-2.35,13.22,13.22,0,0,1,5.14,1.1A10.64,10.64,0,0,1,720.49,115.37Z"/><path class="cls-3" d="M755.87,115.37l-3.44,2.75A13.6,13.6,0,0,0,750,116a6,6,0,0,0-3.2-.7,6.24,6.24,0,0,0-3.71,1,3.16,3.16,0,0,0-1.42,2.66,3.22,3.22,0,0,0,1.24,2.49,17.12,17.12,0,0,0,4.24,2.37,30.44,30.44,0,0,1,4.65,2.39,12,12,0,0,1,2.74,2.45,9.7,9.7,0,0,1,1.59,2.82,9.43,9.43,0,0,1,.53,3.15,8.81,8.81,0,0,1-2.82,6.59A9.42,9.42,0,0,1,747,144a11.54,11.54,0,0,1-6.88-2.13,13.41,13.41,0,0,1-4.6-6.4l4.24-1.19q2.32,5.24,7.09,5.24a5.49,5.49,0,0,0,3.85-1.39,4.49,4.49,0,0,0,1.54-3.5,4.69,4.69,0,0,0-.81-2.53,7.2,7.2,0,0,0-2-2.11,20.94,20.94,0,0,0-3.8-1.89,26.86,26.86,0,0,1-4-2,10.13,10.13,0,0,1-2.43-2.12,8.9,8.9,0,0,1-1.51-2.44,7.08,7.08,0,0,1-.48-2.61,7.32,7.32,0,0,1,2.69-5.69,9.53,9.53,0,0,1,6.5-2.35,13.22,13.22,0,0,1,5.14,1.1A10.57,10.57,0,0,1,755.87,115.37Z"/><path class="cls-3" d="M771,127.25a15.31,15.31,0,0,1,5.07-11.52,17.09,17.09,0,0,1,12.18-4.8,16.69,16.69,0,0,1,12,4.84,15.39,15.39,0,0,1,5,11.48,16,16,0,0,1-5,11.89,17.55,17.55,0,0,1-24.28,0A16,16,0,0,1,771,127.25Zm29.73.19a11.47,11.47,0,0,0-3.7-8.65,12.77,12.77,0,0,0-9.12-3.52,12.17,12.17,0,0,0-8.8,3.58,11.57,11.57,0,0,0-3.67,8.59,11.33,11.33,0,0,0,3.76,8.61,13,13,0,0,0,9.23,3.52,11.94,11.94,0,0,0,8.66-3.59A11.58,11.58,0,0,0,800.73,127.44Z"/><path class="cls-3" d="M846.3,113v4.8a21.24,21.24,0,0,0-9.24-2.46,12.82,12.82,0,0,0-9.11,3.49,11.79,11.79,0,0,0,.09,17.24,13.52,13.52,0,0,0,9.49,3.47,18,18,0,0,0,8.77-2.61v4.85a19.23,19.23,0,0,1-9.14,2.24,17.23,17.23,0,0,1-12.33-4.88,15.68,15.68,0,0,1-5.12-11.77,15.45,15.45,0,0,1,5-11.59,16.86,16.86,0,0,1,12.12-4.83A24.38,24.38,0,0,1,846.3,113Z"/><path class="cls-3" d="M861.7,111.91h4.19v31H861.7Z"/><path class="cls-3" d="M894.73,110.72,909.39,143h-4.45l-3.6-7.94H888.17L884.61,143h-4.42Zm0,9.68-5,11.08h10Z"/><path class="cls-3" d="M919.33,111.91h19v4.24H930.9V143h-4.19v-26.8h-7.38Z"/><path class="cls-3" d="M953.44,111.91h4.19v31h-4.19Z"/><path class="cls-3" d="M973.6,127.25a15.33,15.33,0,0,1,5.06-11.52,17.11,17.11,0,0,1,12.19-4.8,16.65,16.65,0,0,1,12,4.84,15.39,15.39,0,0,1,5,11.48,16,16,0,0,1-5,11.89,17.55,17.55,0,0,1-24.28,0A16,16,0,0,1,973.6,127.25Zm29.73.19a11.47,11.47,0,0,0-3.71-8.65,12.76,12.76,0,0,0-9.11-3.52,12.18,12.18,0,0,0-8.81,3.58,11.57,11.57,0,0,0-3.67,8.59,11.33,11.33,0,0,0,3.77,8.61,13,13,0,0,0,9.22,3.52,11.92,11.92,0,0,0,8.66-3.59A11.59,11.59,0,0,0,1003.33,127.44Z"/><path class="cls-3" d="M1023.55,110.67l23,23.59V111.91h4.24v32.48l-23-23.49v22h-4.24Z"/><path class="cls-3" d="M1090.41,127.25a15.31,15.31,0,0,1,5.07-11.52,17.09,17.09,0,0,1,12.19-4.8,16.65,16.65,0,0,1,12,4.84,15.39,15.39,0,0,1,5,11.48,16,16,0,0,1-5,11.89,17.55,17.55,0,0,1-24.28,0A16,16,0,0,1,1090.41,127.25Zm29.73.19a11.47,11.47,0,0,0-3.7-8.65,12.76,12.76,0,0,0-9.11-3.52,12.18,12.18,0,0,0-8.81,3.58,11.57,11.57,0,0,0-3.67,8.59,11.33,11.33,0,0,0,3.76,8.61,13,13,0,0,0,9.23,3.52,11.94,11.94,0,0,0,8.66-3.59A11.58,11.58,0,0,0,1120.14,127.44Z"/><path class="cls-3" d="M1140.27,111.91h17.2v4.24h-13v7.75h13v4.19h-13V143h-4.24Z"/><path class="cls-3" d="M425.75,160.06H439l9.7,31.05,9.71-31.05h12.8l6.67,51.8H467.26l-4.57-36.46-11.4,36.46h-5.07l-11.7-36.77-4.32,36.77H419.39Z"/><path class="cls-3" d="M490.14,160.06H519.3v10.26h-18v10.45h18v10.1h-18V201.6h18v10.26H490.14Z"/><path class="cls-3" d="M532.57,160.06h17.67q11.32,0,18.23,7.14t6.9,18.82q0,11.72-7.12,18.78t-19,7.06H532.57Zm11.24,9.78v32h4.42a16.81,16.81,0,0,0,11.28-3.75q4.43-3.75,4.42-12.51a18.6,18.6,0,0,0-2.13-9,10.94,10.94,0,0,0-6.17-5.33,23.69,23.69,0,0,0-7.71-1.4Z"/><path class="cls-3" d="M587.58,160.06h11.16v51.8H587.58Z"/><path class="cls-3" d="M651.86,162.82v12.62q-8.4-5-14.71-5.05a12.74,12.74,0,0,0-10.1,4.34q-3.79,4.35-3.79,11.68,0,6.94,4,11.11t10.66,4.16q5.83,0,14-4.7v12.55q-9.11,3-15.19,3a23.57,23.57,0,0,1-17.75-7.68,26.12,26.12,0,0,1-7.3-18.72,26.52,26.52,0,0,1,7.44-19,24.09,24.09,0,0,1,18.09-7.79A36.59,36.59,0,0,1,651.86,162.82Z"/><path class="cls-3" d="M682.29,160.06h8.65l21.1,51.8H700.81l-4.15-10.18H676.78l-4.06,10.18H661.54Zm4.32,17-6.09,15.27h12.31Z"/><path class="cls-3" d="M724.17,160.06h11.08v40.63h15.27v11.17H724.17Z"/><path class="cls-3" d="M817.07,164.75l-7,7.62q-5.48-3.24-7.89-3.24a4.28,4.28,0,0,0-3.19,1.4,4.65,4.65,0,0,0-1.34,3.33q0,3.82,6.94,6.63a48.27,48.27,0,0,1,7.69,3.93,14,14,0,0,1,4.36,4.87,13.55,13.55,0,0,1,1.76,6.75,15.27,15.27,0,0,1-5.39,11.6,18.24,18.24,0,0,1-12.72,4.93q-8,0-15.9-7.58l7.34-8.56q4.94,5.1,9.23,5.09a5.59,5.59,0,0,0,3.87-1.79,5.25,5.25,0,0,0,1.85-3.76q0-4-8.56-7.14a27.93,27.93,0,0,1-6.94-3.35,11.8,11.8,0,0,1-3.45-4.53,14.13,14.13,0,0,1-1.41-6.1,14.78,14.78,0,0,1,4.5-11.2q4.5-4.31,11.76-4.3A20.49,20.49,0,0,1,817.07,164.75Z"/><path class="cls-3" d="M827,160.06h34.83v11H849.91v40.8H838.74v-40.8H827Z"/><path class="cls-3" d="M873.24,160.06h11v31.68a10.14,10.14,0,0,0,2.44,7.1,8.29,8.29,0,0,0,6.43,2.68,9.24,9.24,0,0,0,7.1-2.7q2.53-2.7,2.53-7.64V160.06h11v33.53a21.17,21.17,0,0,1-2.29,9.17,15.9,15.9,0,0,1-7,7.28,22.26,22.26,0,0,1-10.64,2.53q-10.65,0-15.58-5.94t-4.93-12.49Z"/><path class="cls-3" d="M928.33,160.06H946q11.32,0,18.23,7.14t6.9,18.82q0,11.72-7.12,18.78t-19,7.06H928.33Zm11.24,9.78v32H944a16.81,16.81,0,0,0,11.28-3.75q4.43-3.75,4.42-12.51a18.6,18.6,0,0,0-2.13-9,10.94,10.94,0,0,0-6.17-5.33,23.7,23.7,0,0,0-7.72-1.4Z"/><path class="cls-3" d="M984,160.06h29.16v10.26h-18v10.45h18v10.1h-18V201.6h18v10.26H984Z"/><path class="cls-3" d="M1060.88,160.06h10.93v51.8h-10.88l-23.68-33.54v33.54h-11.17v-51.8h11l23.76,33.29Z"/><path class="cls-3" d="M1082.71,160.06h34.84v11h-11.88v40.8h-11.16v-40.8h-11.8Z"/><path class="cls-3" d="M1158.08,164.75l-6.95,7.62q-5.48-3.24-7.89-3.24a4.28,4.28,0,0,0-3.19,1.4,4.65,4.65,0,0,0-1.34,3.33q0,3.82,6.94,6.63a48.27,48.27,0,0,1,7.69,3.93,14,14,0,0,1,4.36,4.87,13.55,13.55,0,0,1,1.76,6.75,15.27,15.27,0,0,1-5.39,11.6,18.24,18.24,0,0,1-12.72,4.93q-8.05,0-15.9-7.58l7.34-8.56q4.93,5.1,9.23,5.09a5.59,5.59,0,0,0,3.87-1.79,5.25,5.25,0,0,0,1.85-3.76q0-4-8.56-7.14a28.12,28.12,0,0,1-6.94-3.35,11.8,11.8,0,0,1-3.45-4.53,14.12,14.12,0,0,1-1.4-6.1,14.77,14.77,0,0,1,4.49-11.2q4.5-4.31,11.76-4.3A20.47,20.47,0,0,1,1158.08,164.75Z"/></svg>