<svg id="Layer_1" data-name="Layer 1" xmlns="http://www.w3.org/2000/svg" viewBox="0 0 990.06 990.06"><defs><style>.cls-1{fill:#fff;}.cls-2{fill:#360f37;}.cls-3{fill:#6d296c;}.cls-4{fill:#351235;}</style></defs><path class="cls-1" d="M134.76,349.38a36.42,36.42,0,0,1-1.56,17.82,32.38,32.38,0,0,1-16.32,19c-7.95,4.1-16,4.85-24.15,2A29.58,29.58,0,0,1,75,372a31.88,31.88,0,0,1-1.11-24.71,45.41,45.41,0,0,1,9.43-15.58l8.57,2.92c-5,5-8.32,10-10.06,15a24.18,24.18,0,0,0,.68,18.5,22.28,22.28,0,0,0,30.92,10.43c5.65-3.1,9.68-8.07,12-14.9,1.68-4.9,2-10.68.75-17.32Z" transform="translate(-4.97 -4.97)"/><path class="cls-1" d="M159.15,297.3c1.8,5.65,1.12,11.48-2.17,17.5s-7.95,10-13.78,11.61-12.54.31-20-3.79L92.73,306.05,96.58,299l31.66,17.32c4.72,2.55,8.94,3.36,12.72,2.49s6.83-3.36,9.07-7.45,2.79-7.89,1.67-11.55-3.85-6.46-8.13-8.82L110.67,273l3.85-7.07,32.4,17.69C153.26,287.12,157.35,291.59,159.15,297.3Z" transform="translate(-4.97 -4.97)"/><path class="cls-1" d="M199.81,248.13l-5.58,7.32-29.12-1.8L164,255.08l19.18,14.72-4.91,6.39-46.62-35.82,7.82-10.12c3.85-5,8.2-8.13,13.1-9.37a15.09,15.09,0,0,1,13.29,2.67,15.44,15.44,0,0,1,5.9,9.37c.8,3.85.06,8.38-2.3,13.47Zm-41.34,2.67c7.39-9.19,8.26-16,2.67-20.3a8.94,8.94,0,0,0-6.15-2.11,10,10,0,0,0-5.89,2.42,45.09,45.09,0,0,0-6.89,7.51Z" transform="translate(-4.97 -4.97)"/><polygon class="cls-1" points="185.6 179.53 221.23 215.66 215.58 221.18 179.95 185.05 170.01 194.92 164.43 189.21 189.94 164.01 195.59 169.66 185.6 179.53"/><polygon class="cls-1" points="215.45 142.78 252.14 188.65 246 193.62 209.31 147.74 215.45 142.78"/><polygon class="cls-1" points="282.94 98.08 314.72 150.66 254.5 135.14 276.11 170.84 269.22 175 237.62 122.66 297.96 138.43 276.04 102.24 282.94 98.08"/><path class="cls-1" d="M374.94,66.42l43.33,51.09-8.07,2.3-10.68-12.54-24,6.77-2.42,16.26-8.07,2.3Zm19.8,35.2L379.91,84.05l-3.29,22.72Z" transform="translate(-4.97 -4.97)"/><path class="cls-1" d="M469.3,95.17a16.47,16.47,0,0,1-3.79,13,18,18,0,0,1-12.16,6.65,22,22,0,0,1-13.41-2.49c-4-2.17-7.45-5.9-10.06-11l7.7-3.16c3.72,6.14,8.57,8.94,14.53,8.19A10.27,10.27,0,0,0,459,103a8.67,8.67,0,0,0,2.11-7,9,9,0,0,0-2.05-4.59A13.39,13.39,0,0,0,454.77,88a44.59,44.59,0,0,0-7.51-2.73,44.86,44.86,0,0,1-8-2.79,18.93,18.93,0,0,1-5-3.41,14.26,14.26,0,0,1-3.42-4.29A12,12,0,0,1,429.32,70a13.88,13.88,0,0,1,3.79-11.3,18.07,18.07,0,0,1,11.67-5.83,24.5,24.5,0,0,1,9.87.87A19.35,19.35,0,0,1,463.59,59l-5.84,5.89a30,30,0,0,0-5.15-3.41,11.52,11.52,0,0,0-6.14-.56,11.88,11.88,0,0,0-6.71,2.79,5.9,5.9,0,0,0,.81,9.69,33.14,33.14,0,0,0,8.5,3.54,60.92,60.92,0,0,1,9.25,3.41,22.12,22.12,0,0,1,5.71,4,18.36,18.36,0,0,1,3.67,5A16.5,16.5,0,0,1,469.3,95.17Z" transform="translate(-4.97 -4.97)"/><path class="cls-1" d="M527,89.27a19.64,19.64,0,0,1,.8,6,16.47,16.47,0,0,1-5.65,12.29,17.94,17.94,0,0,1-13,4.84,22.26,22.26,0,0,1-12.92-4.34c-3.72-2.8-6.45-6.89-8.38-12.36l8.07-2c2.8,6.64,7.2,10.11,13.23,10.24a10,10,0,0,0,7.32-2.42,8.65,8.65,0,0,0,3-6.52,8.36,8.36,0,0,0-1.42-4.84,13.8,13.8,0,0,0-3.67-4.1,36.28,36.28,0,0,0-7.07-3.72,56.18,56.18,0,0,1-7.52-4,19.37,19.37,0,0,1-4.53-4.09,20.72,20.72,0,0,1-2.73-4.72,14.15,14.15,0,0,1-.74-5,13.89,13.89,0,0,1,5.34-10.62,17.78,17.78,0,0,1,12.41-4.09,24,24,0,0,1,9.69,2.29,20,20,0,0,1,8,6.52l-6.58,5a28.41,28.41,0,0,0-4.59-4.1,11.09,11.09,0,0,0-6-1.42,11.62,11.62,0,0,0-7.08,1.73,6,6,0,0,0-2.85,5,6.09,6.09,0,0,0,2.23,4.78,32.29,32.29,0,0,0,7.89,4.72,52.05,52.05,0,0,1,8.75,4.72,21.64,21.64,0,0,1,5,4.78A17.93,17.93,0,0,1,527,89.27Z" transform="translate(-4.97 -4.97)"/><path class="cls-1" d="M607.55,72c5,7.26,6.64,15,5,23.22a30.28,30.28,0,0,1-13.66,20.17c-7.26,4.84-15.45,6.27-24.33,4.53a31.52,31.52,0,0,1-20.67-13.59A30.22,30.22,0,0,1,549,82.38,28.83,28.83,0,0,1,562.73,63a33.21,33.21,0,0,1,44.82,9ZM604.14,93.8a21.77,21.77,0,0,0-3.66-17.44,24.54,24.54,0,0,0-15.65-9.94,23.45,23.45,0,0,0-17.69,3.42,22.51,22.51,0,0,0-10,14.52,22.19,22.19,0,0,0,3.79,17.45,24.78,24.78,0,0,0,15.89,9.93,22.31,22.31,0,0,0,17.39-3.48A21.8,21.8,0,0,0,604.14,93.8Z" transform="translate(-4.97 -4.97)"/><path class="cls-1" d="M689.37,95.48,686,104c-4.72-5.28-9.5-8.88-14.47-10.86a24,24,0,0,0-18.5-.38,21.45,21.45,0,0,0-12.54,12.48,21.22,21.22,0,0,0,.5,17.88c2.79,5.84,7.57,10.06,14.22,12.79,4.84,2,10.55,2.48,17.26,1.61L669,146.07a35.8,35.8,0,0,1-17.57-2.61,32.19,32.19,0,0,1-18.25-17.25,29.85,29.85,0,0,1-.62-24.28,29,29,0,0,1,17.07-16.76,31.45,31.45,0,0,1,24.65.13A46.17,46.17,0,0,1,689.37,95.48Z" transform="translate(-4.97 -4.97)"/><polygon class="cls-1" points="715.26 105.09 686.64 156.37 679.68 152.52 708.37 101.18 715.26 105.09"/><path class="cls-1" d="M765,136.26,751.2,201.88l-6.76-5,3.41-16.14L727.74,166l-14.34,8.13-6.71-5Zm-15.65,37.31,4.78-22.47-20,11.3Z" transform="translate(-4.97 -4.97)"/><path class="cls-2" d="M956.13,307.31A495.16,495.16,0,0,1,43.87,692.69,495.16,495.16,0,0,1,956.13,307.31ZM986.34,500C986.34,231.83,768.17,13.66,500,13.66S13.66,231.83,13.66,500,231.83,986.34,500,986.34,986.34,768.17,986.34,500Z" transform="translate(-4.97 -4.97)"/><path class="cls-2" d="M940.48,313.93A478,478,0,0,1,162,838,478.06,478.06,0,1,1,940.48,313.93ZM969.35,500C969.35,241.18,758.78,30.67,500,30.67S30.65,241.18,30.65,500,241.22,969.37,500,969.37,969.35,758.79,969.35,500Z" transform="translate(-4.97 -4.97)"/><path class="cls-1" d="M932.66,607.63a17.73,17.73,0,0,1,1.49,13.78,21.74,21.74,0,0,1-7.45,11.49c-3.6,2.85-8.25,4.53-14,5l.06-8.32c7.14-1.06,11.55-4.41,13.17-10.25a10.54,10.54,0,0,0-.5-7.69,8.36,8.36,0,0,0-5.59-4.6,8.51,8.51,0,0,0-5.09.19,13.82,13.82,0,0,0-4.84,2.48,39.87,39.87,0,0,0-5.34,6,52.22,52.22,0,0,1-5.71,6.33,18.15,18.15,0,0,1-5.09,3.29,17,17,0,0,1-5.22,1.56,12.42,12.42,0,0,1-5-.56,13.63,13.63,0,0,1-9-7.76,18.21,18.21,0,0,1-.94-13.1,25.08,25.08,0,0,1,4.66-8.75,20.1,20.1,0,0,1,8.32-6.21l3.23,7.7a26.9,26.9,0,0,0-5.16,3.41,12.81,12.81,0,0,0-2.91,5.46,12,12,0,0,0,0,7.27,6,6,0,0,0,9.31,3,32.5,32.5,0,0,0,6.52-6.46,53.2,53.2,0,0,1,6.76-7.26,21.53,21.53,0,0,1,5.84-3.73,19.19,19.19,0,0,1,6-1.49,18.5,18.5,0,0,1,6,.75A16.31,16.31,0,0,1,932.66,607.63Z" transform="translate(-4.97 -4.97)"/><path class="cls-1" d="M921.55,486.2A13.79,13.79,0,1,1,907.71,500,13.83,13.83,0,0,1,921.55,486.2Z" transform="translate(-4.97 -4.97)"/><polygon class="cls-1" points="920.3 354.22 923.16 361.67 865.67 383.4 891.87 327.09 852.82 341.8 849.97 334.29 907.14 312.69 880.7 369.12 920.3 354.22"/><polygon class="cls-1" points="907.58 671.94 904.47 679.14 857.91 658.84 852.39 671.63 845 668.4 859.4 635.5 866.79 638.73 861.14 651.58 907.58 671.94"/><polygon class="cls-1" points="889.33 716.89 828.49 729.68 863.75 752.02 859.4 758.79 807.88 725.95 868.84 713.35 833.14 690.63 837.49 683.86 889.33 716.89"/><path class="cls-1" d="M882.32,263.9A31.59,31.59,0,0,1,886.47,288a29.24,29.24,0,0,1-13.53,19.5,30.31,30.31,0,0,1-24.09,3.85c-8.5-2.11-15.08-7-19.92-14.78a31.52,31.52,0,0,1-4.16-24.33,30.36,30.36,0,0,1,14.09-19.87,28.89,28.89,0,0,1,23.65-3.29A32.23,32.23,0,0,1,882.32,263.9Zm-3.92,21.91A24.23,24.23,0,0,0,875,267.62,23.24,23.24,0,0,0,860.46,257a22.42,22.42,0,0,0-17.5,2.67,21.51,21.51,0,0,0-10.06,14.65,24.52,24.52,0,0,0,3.48,18.31A22.55,22.55,0,0,0,850.84,303a22.33,22.33,0,0,0,27.56-17.2Z" transform="translate(-4.97 -4.97)"/><path class="cls-3" d="M875,267.62a24.23,24.23,0,0,1,3.41,18.19A22.33,22.33,0,0,1,850.84,303a22.55,22.55,0,0,1-14.46-10.37,24.52,24.52,0,0,1-3.48-18.31A21.51,21.51,0,0,1,843,259.68a22.42,22.42,0,0,1,17.5-2.67A23.24,23.24,0,0,1,875,267.62Z" transform="translate(-4.97 -4.97)"/><path class="cls-1" d="M500,13.66c268.17,0,486.34,218.17,486.34,486.34S768.17,986.34,500,986.34,13.66,768.17,13.66,500,231.83,13.66,500,13.66ZM978,500A478.15,478.15,0,0,0,59.52,313.93a478.17,478.17,0,0,0,881,372.17A474.7,474.7,0,0,0,978,500Z" transform="translate(-4.97 -4.97)"/><polygon class="cls-1" points="842.77 779.84 821.23 804.3 777.15 765.5 798.69 741.04 804.71 746.31 788.39 764.81 799.44 774.56 815.7 756 821.66 761.27 805.33 779.71 820.54 793.12 836.81 774.62 842.77 779.84"/><path class="cls-2" d="M763.53,236.46c70.4,70.4,109.19,164,109.19,263.53A370.32,370.32,0,0,1,763.53,763.57q-9.42,9.42-19.39,18.09-4,3.47-8,6.8c-1.36,1.11-2.72,2.22-4.09,3.31q-4.11,3.29-8.28,6.43t-8.44,6.18q-2.24,1.59-4.49,3.13c-1.36,1-2.73,1.87-4.11,2.79s-2.89,1.93-4.34,2.87-2.92,1.89-4.39,2.81a368.64,368.64,0,0,1-85,39.42h0c-4.33,1.36-8.67,2.65-13,3.86-2.19.61-4.38,1.19-6.58,1.76s-4.41,1.1-6.62,1.63h0q-4.43,1.05-8.87,2h0l-4.47.92a379.2,379.2,0,0,1-142.07.86q-5.16-1-10.28-2.06T410.72,862q-1.7-.4-3.39-.84-5.06-1.3-10.07-2.72h0q-6.67-1.9-13.28-4.06c-1.09-.35-2.19-.72-3.29-1.09s-2.4-.81-3.59-1.23l-3.58-1.27-2.2-.79-1.15-.43-2.75-1c-1-.38-2-.77-3-1.17h0q-2.13-.82-4.23-1.68L355.92,844c-1.4-.59-2.8-1.18-4.19-1.79s-2.77-1.21-4.16-1.83q-2.77-1.25-5.52-2.53h0q-7.85-3.68-15.53-7.73c-2.05-1.07-4.1-2.17-6.13-3.3s-4-2.26-6.05-3.41h0q-10.35-6-20.34-12.62c-.85-.56-1.69-1.13-2.54-1.71-.13-.08-.26-.16-.38-.25q-2.38-1.62-4.76-3.29-10.17-7.12-19.9-15-2.38-1.95-4.76-3.91L260,785.25l-1.62-1.38-2.82-2.43q-9.81-8.58-19.12-17.87C166,693.18,127.31,599.56,127.31,500S166,306.86,236.44,236.46q12.87-12.87,26.75-24.34c.77-.64,1.55-1.28,2.33-1.9q2.33-1.89,4.67-3.73c.78-.62,1.57-1.23,2.36-1.84q4.72-3.66,9.55-7.15c1.08-.78,2.15-1.55,3.23-2.31.92-.67,1.85-1.32,2.78-1.95l2.81-1.92c.93-.64,1.87-1.27,2.81-1.9s1.88-1.26,2.83-1.87l3.8-2.45q1.9-1.22,3.82-2.4c1.28-.8,2.56-1.59,3.85-2.35L311.9,178a2.28,2.28,0,0,1,.3-.17c1.08-.65,2.16-1.27,3.25-1.88,1.29-.75,2.59-1.49,3.9-2.2.2-.12.39-.23.59-.33,1.09-.61,2.19-1.21,3.29-1.79.37-.22.75-.42,1.12-.61s.95-.52,1.43-.76,1-.5,1.43-.75a1.16,1.16,0,0,1,.27-.14c.47-.26.94-.51,1.41-.74a1.59,1.59,0,0,1,.29-.15l2.47-1.27q2-1,4-2c.91-.45,1.83-.9,2.75-1.33.54-.27,1.09-.54,1.64-.79,1-.49,2-1,3.07-1.44l1.46-.68c.86-.39,1.72-.79,2.59-1.17s1.49-.68,2.24-1,1.45-.65,2.18-1l.07,0q2.22-1,4.45-1.9,10.2-4.26,20.65-7.92,5.22-1.83,10.5-3.49h0q5-1.56,10-3c1.12-.32,2.24-.64,3.36-.94q3.34-.92,6.72-1.78h0q3.38-.85,6.76-1.66,5.1-1.2,10.23-2.25c2.28-.47,4.57-.91,6.86-1.34a378.64,378.64,0,0,1,142.07.86c1.49.3,3,.6,4.47.92h0q4.44.94,8.87,2h0l3.32.8c2.21.55,4.4,1.12,6.59,1.7l3.3.89q3.27.92,6.53,1.88c2.18.64,4.35,1.31,6.51,2h0q2.64.84,5.26,1.71,5.24,1.75,10.42,3.65t10.32,4c2.57,1,5.13,2.1,7.68,3.19.67.28,1.33.56,2,.86l3.2,1.4c1.23.56,2.46,1.11,3.68,1.68l1,.47c1.25.58,2.51,1.16,3.75,1.76,1.41.67,2.8,1.35,4.2,2h0l4.16,2.09c1.38.71,2.77,1.42,4.14,2.14q4.14,2.17,8.21,4.44l4.07,2.3q4.05,2.32,8.05,4.76,2,1.22,4,2.46c2.64,1.65,5.27,3.35,7.88,5.07l3.9,2.61,3.87,2.67,3.77,2.66.24.17,3.64,2.65q3.78,2.79,7.52,5.69t7.17,5.7q2,1.59,3.88,3.21,3.18,2.67,6.32,5.4l2.34,2.07q2.32,2.09,4.63,4.2l2.3,2.13q2.28,2.15,4.54,4.33h0Q761.3,234.24,763.53,236.46ZM864,500c0-200.71-163.33-364-364-364S135.91,299.28,135.91,500,299.24,864.08,500,864.08,864,700.75,864,500Z" transform="translate(-4.97 -4.97)"/><polygon class="cls-1" points="835.57 204.61 840.66 210.69 795.53 248.37 790.43 242.23 835.57 204.61"/><path class="cls-3" d="M500,30.67c258.75,0,469.32,210.51,469.32,469.32S758.78,969.37,500,969.37,30.65,758.79,30.65,500,241.22,30.67,500,30.67ZM934.15,621.41a17.73,17.73,0,0,0-1.49-13.78,16.31,16.31,0,0,0-10.49-8.5,18.5,18.5,0,0,0-6-.75,19.19,19.19,0,0,0-6,1.49,21.53,21.53,0,0,0-5.84,3.73,53.2,53.2,0,0,0-6.76,7.26,32.5,32.5,0,0,1-6.52,6.46,6,6,0,0,1-9.31-3,12,12,0,0,1,0-7.27,12.81,12.81,0,0,1,2.91-5.46,26.9,26.9,0,0,1,5.16-3.41l-3.23-7.7a20.1,20.1,0,0,0-8.32,6.21,25.08,25.08,0,0,0-4.66,8.75,18.21,18.21,0,0,0,.94,13.1,13.63,13.63,0,0,0,9,7.76,12.42,12.42,0,0,0,5,.56,17,17,0,0,0,5.22-1.56,18.15,18.15,0,0,0,5.09-3.29,52.22,52.22,0,0,0,5.71-6.33,39.87,39.87,0,0,1,5.34-6,13.82,13.82,0,0,1,4.84-2.48,8.51,8.51,0,0,1,5.09-.19,8.36,8.36,0,0,1,5.59,4.6,10.54,10.54,0,0,1,.5,7.69c-1.62,5.84-6,9.19-13.17,10.25l-.06,8.32c5.78-.5,10.43-2.18,14-5A21.74,21.74,0,0,0,934.15,621.41ZM935.33,500a13.81,13.81,0,1,0-13.78,13.78A13.83,13.83,0,0,0,935.33,500Zm-7.2-133.35-2.86-7.45-39.6,14.9,26.44-56.43-57.17,21.6,2.85,7.51,39.05-14.71-26.2,56.31ZM909.44,684.11l3.11-7.2-46.44-20.36,5.65-12.85-7.39-3.23L850,673.37l7.39,3.23,5.52-12.79Zm-76,50.54,60.84-12.79-51.84-33-4.35,6.77,35.7,22.72-61,12.6,51.52,32.84,4.35-6.77Zm53-446.67a31.59,31.59,0,0,0-4.15-24.08,32.23,32.23,0,0,0-19.81-14.84,28.89,28.89,0,0,0-23.65,3.29,30.36,30.36,0,0,0-14.09,19.87,31.52,31.52,0,0,0,4.16,24.33c4.84,7.76,11.42,12.67,19.92,14.78a30.31,30.31,0,0,0,24.09-3.85A29.24,29.24,0,0,0,886.47,288ZM826.2,809.27l21.54-24.46-6-5.22-16.27,18.5L810.3,784.68l16.33-18.44-6-5.27-16.26,18.56-11-9.75,16.32-18.5-6-5.27-21.54,24.46ZM872.76,500c0-99.58-38.8-193.13-109.2-263.53-1.48-1.48-3-3-4.49-4.41h0q-2.26-2.19-4.54-4.33l-2.3-2.13c-1.53-1.43-3.08-2.82-4.63-4.2l-2.34-2.07q-3.13-2.73-6.32-5.4-1.93-1.62-3.88-3.21-3.56-2.91-7.17-5.7t-7.52-5.69c-1.2-.9-2.42-1.78-3.64-2.65l-.24-.17q-1.87-1.35-3.77-2.66t-3.87-2.67q-2-1.33-3.9-2.61-3.9-2.61-7.88-5.07-2-1.26-4-2.46-4-2.43-8.05-4.76c-1.35-.78-2.7-1.55-4.07-2.3q-4.08-2.28-8.21-4.44-2.06-1.09-4.14-2.14t-4.16-2.09h0q-2.1-1-4.2-2c-1.24-.6-2.5-1.18-3.75-1.76l-1-.47c-1.22-.57-2.45-1.12-3.68-1.68l-3.2-1.4c-.66-.3-1.32-.58-2-.86-2.55-1.09-5.11-2.16-7.68-3.19q-5.13-2.06-10.32-4t-10.42-3.65q-2.62-.87-5.26-1.71h0c-2.16-.68-4.33-1.35-6.51-2s-4.35-1.28-6.53-1.88l-3.3-.89c-2.19-.59-4.39-1.15-6.59-1.7l-3.32-.8h0c-2.94-.7-5.9-1.37-8.87-2h0c-1.49-.32-3-.62-4.47-.92a378.64,378.64,0,0,0-142.07-.86c-2.29.43-4.58.87-6.86,1.34q-5.13,1-10.23,2.25-3.39.81-6.76,1.66h0q-3.37.87-6.72,1.78c-1.12.3-2.24.62-3.36.94q-5,1.42-10,3h0Q382,146.2,376.77,148q-10.44,3.64-20.65,7.92-2.24.93-4.45,1.9l-.07,0c-.73.31-1.46.63-2.18,1s-1.5.65-2.24,1-1.73.78-2.59,1.17l-1.46.68c-1,.47-2.05.95-3.07,1.44-.55.25-1.1.52-1.64.79-.92.43-1.84.88-2.75,1.33q-2,1-4,2l-2.47,1.27a1.59,1.59,0,0,0-.29.15c-.47.23-.94.48-1.41.74a1.16,1.16,0,0,0-.27.14c-.48.25-1,.49-1.43.75s-1,.5-1.43.76-.75.39-1.12.61c-1.1.58-2.2,1.18-3.29,1.79-.2.1-.39.21-.59.33-1.31.71-2.61,1.45-3.9,2.2-1.09.61-2.17,1.23-3.25,1.88a2.28,2.28,0,0,0-.3.17L308,180.35c-1.29.76-2.57,1.55-3.85,2.35s-2.55,1.59-3.82,2.4l-3.8,2.45c-.95.61-1.89,1.23-2.83,1.87s-1.88,1.26-2.81,1.9l-2.81,1.92c-.93.63-1.86,1.28-2.78,1.95-1.08.76-2.15,1.53-3.23,2.31q-4.83,3.47-9.55,7.15c-.79.61-1.58,1.22-2.36,1.84q-2.34,1.84-4.67,3.73c-.78.62-1.56,1.26-2.33,1.9q-13.89,11.43-26.78,24.34C166,306.86,127.28,400.41,127.28,500S166,693.18,236.41,763.57q9.32,9.31,19.15,17.87l2.82,2.43,1.62,1.38,1.64,1.37q2.37,2,4.76,3.91,9.72,7.86,19.9,15,2.37,1.66,4.76,3.29c.12.09.25.17.38.25.85.58,1.69,1.15,2.54,1.71q10,6.66,20.34,12.62h0q3,1.73,6.05,3.41c2,1.13,4.08,2.23,6.13,3.3q7.68,4,15.53,7.73h0q2.74,1.29,5.52,2.53c1.39.62,2.77,1.23,4.16,1.83s2.79,1.2,4.19,1.79l4.21,1.73q2.1.85,4.23,1.68h0c1,.4,2,.79,3,1.17l2.75,1,1.15.43,2.2.79,3.58,1.27c1.19.42,2.39.83,3.59,1.23s2.2.74,3.29,1.09q6.6,2.16,13.28,4.06h0q5,1.44,10.07,2.72,1.69.44,3.39.84,5.07,1.25,10.19,2.34t10.28,2.06a379.2,379.2,0,0,0,142.07-.86c1.49-.3,3-.6,4.47-.92h0q4.44-.95,8.87-2h0q3.32-.79,6.62-1.63c2.2-.57,4.39-1.15,6.58-1.76,4.38-1.21,8.72-2.5,13-3.86h0A368.64,368.64,0,0,0,698,816q2.2-1.38,4.39-2.81t4.34-2.87c1.38-.92,2.75-1.84,4.11-2.79s3-2.07,4.49-3.13q4.26-3,8.44-6.18t8.28-6.43c1.37-1.09,2.74-2.19,4.09-3.31q4.06-3.32,8-6.8,10-8.64,19.42-18.09A370.33,370.33,0,0,0,872.76,500ZM845.63,215.66l-5.09-6.08L795.4,247.2l5.1,6.14Zm-27.38-19.3,5.65-5.72-25.83-25.08-5.58,5.78,10,9.68-35.38,36.44,5.77,5.53,35.26-36.38ZM795.71,826.83c.5-8.19-1.67-15.27-6.64-21.17a29.26,29.26,0,0,0-19.49-10.24c-8.07-1-16.39,2.11-25,9.31l-10.92,9.19,37.86,45,10.93-9.25C790.75,842.66,795.16,835.09,795.71,826.83ZM751.2,201.88,765,136.26l-58.3,32.9,6.71,5L727.74,166l20.11,14.77-3.41,16.14ZM739.35,875.57c1.42-5.78.25-11.8-3.36-18l-18.68-31.84-6.95,4,18.93,32.34c2.48,4.23,3.29,8.2,2.42,11.8s-3.35,6.64-7.39,9-7.94,3-11.61,1.74-6.89-4.16-9.56-8.75l-18.31-31.11-6.89,4,17.57,30c4.34,7.39,9.43,11.86,15.21,13.48s11.73.68,17.75-2.86S738,881.34,739.35,875.57ZM691.61,161.34l28.62-51.28-6.89-3.91-28.69,51.34ZM686,104l3.41-8.5A46.17,46.17,0,0,0,674.23,85.3a31.45,31.45,0,0,0-24.65-.13,29,29,0,0,0-17.07,16.76,29.85,29.85,0,0,0,.62,24.28,32.19,32.19,0,0,0,18.25,17.25A35.8,35.8,0,0,0,669,146.07l3.48-8.57c-6.71.87-12.42.38-17.26-1.61-6.65-2.73-11.43-6.95-14.22-12.79a21.22,21.22,0,0,1-.5-17.88A21.45,21.45,0,0,1,653,92.74a24,24,0,0,1,18.5.38C676.46,95.1,681.24,98.7,686,104ZM670.75,915.92l-18.94-47.06,13-5.21-3-7.45-33.34,13.41,3.05,7.45,13-5.22,18.87,47.06Zm-48.61,13.84a17.14,17.14,0,0,0,2.11-13.47,18.82,18.82,0,0,0-2.42-5.46,17.83,17.83,0,0,0-4.22-4.47,23.83,23.83,0,0,0-6.15-3.23,53.66,53.66,0,0,0-9.68-2.24,35.21,35.21,0,0,1-8.88-2.35,6.21,6.21,0,0,1-3.41-4,5.94,5.94,0,0,1,1.36-5.53,11.82,11.82,0,0,1,6.34-3.6,10.66,10.66,0,0,1,6.2-.18,23.2,23.2,0,0,1,5.47,2.73l5-6.64a19.84,19.84,0,0,0-9.49-4.16,24.05,24.05,0,0,0-9.94.37,18,18,0,0,0-10.8,7.33,13.51,13.51,0,0,0-2.29,11.67,14.05,14.05,0,0,0,2,4.59,19.4,19.4,0,0,0,3.91,3.79,18.82,18.82,0,0,0,5.47,2.73,53.32,53.32,0,0,0,8.25,1.74,35.64,35.64,0,0,1,7.83,1.73,14.11,14.11,0,0,1,4.71,2.92,9.69,9.69,0,0,1,2.61,4.29,8.54,8.54,0,0,1-1.24,7.14,10.26,10.26,0,0,1-6.33,4.34c-5.84,1.43-11-.68-15.52-6.39l-7.2,4.22c3.29,4.65,7.07,7.88,11.42,9.56a21.55,21.55,0,0,0,13.6.74A17.91,17.91,0,0,0,622.14,929.76ZM612.58,95.17c1.61-8.26-.06-16-5-23.22a33.21,33.21,0,0,0-44.82-9A28.83,28.83,0,0,0,549,82.38a30.22,30.22,0,0,0,4.91,23.9,31.52,31.52,0,0,0,20.67,13.59c8.88,1.74,17.07.31,24.33-4.53A30.28,30.28,0,0,0,612.58,95.17Zm-84.74.12a19.64,19.64,0,0,0-.8-6,17.93,17.93,0,0,0-3-5.4,21.64,21.64,0,0,0-5-4.78,52.05,52.05,0,0,0-8.75-4.72,32.29,32.29,0,0,1-7.89-4.72,6.09,6.09,0,0,1-2.23-4.78,6,6,0,0,1,2.85-5,11.62,11.62,0,0,1,7.08-1.73,11.09,11.09,0,0,1,6,1.42,28.41,28.41,0,0,1,4.59,4.1l6.58-5a20,20,0,0,0-8-6.52,24,24,0,0,0-9.69-2.29,17.78,17.78,0,0,0-12.41,4.09,13.89,13.89,0,0,0-5.34,10.62,14.15,14.15,0,0,0,.74,5,20.72,20.72,0,0,0,2.73,4.72,19.37,19.37,0,0,0,4.53,4.09,56.18,56.18,0,0,0,7.52,4A36.28,36.28,0,0,1,514.43,86a13.8,13.8,0,0,1,3.67,4.1A8.36,8.36,0,0,1,519.52,95a8.65,8.65,0,0,1-3,6.52,10,10,0,0,1-7.32,2.42c-6-.13-10.43-3.6-13.23-10.24l-8.07,2c1.93,5.47,4.66,9.56,8.38,12.36a22.26,22.26,0,0,0,12.92,4.34,17.94,17.94,0,0,0,13-4.84A16.47,16.47,0,0,0,527.84,95.29ZM525.3,949.56l-.19-7.88-19.12.37-1.12-50.84-7.94.25,1.3,58.73Zm-53.08.5L452,886.18,417.4,943.42l8.2,1,8.56-14.09,24.71,3,5,15.71ZM465.51,108.2a18.11,18.11,0,0,0,2.18-18.87,18.36,18.36,0,0,0-3.67-5,22.12,22.12,0,0,0-5.71-4A60.92,60.92,0,0,0,449.06,77a33.14,33.14,0,0,1-8.5-3.54,5.9,5.9,0,0,1-.81-9.69A11.88,11.88,0,0,1,446.46,61a11.52,11.52,0,0,1,6.14.56,30,30,0,0,1,5.15,3.41L463.59,59a19.35,19.35,0,0,0-8.94-5.34,24.5,24.5,0,0,0-9.87-.87,18.07,18.07,0,0,0-11.67,5.83A13.88,13.88,0,0,0,429.32,70a12,12,0,0,0,1.49,4.78A14.26,14.26,0,0,0,434.23,79a18.93,18.93,0,0,0,5,3.41,44.86,44.86,0,0,0,8,2.79A44.59,44.59,0,0,1,454.77,88a13.39,13.39,0,0,1,4.29,3.48A9,9,0,0,1,461.11,96a8.67,8.67,0,0,1-2.11,7,10.27,10.27,0,0,1-6.89,3.41c-6,.75-10.81-2.05-14.53-8.19l-7.7,3.16c2.61,5.09,6,8.82,10.06,11a22,22,0,0,0,13.41,2.49A18,18,0,0,0,465.51,108.2Zm-47.24,9.31L374.94,66.42l-9.87,66.18,8.07-2.3L375.56,114l24-6.77,10.68,12.54ZM409.21,893l2.61-8.75a47.32,47.32,0,0,0-16-8.82,32.18,32.18,0,0,0-24.58,2.24,29.37,29.37,0,0,0-15.4,18.37,29.74,29.74,0,0,0,2.92,24.09,32.77,32.77,0,0,0,19.8,15.52,36,36,0,0,0,17.76.81l2.6-8.76c-6.51,1.43-12.29,1.43-17.25,0-7-2.05-12-5.83-15.4-11.42A22.23,22.23,0,0,1,375.38,885a24.07,24.07,0,0,1,18.37-1.49Q401.48,885.83,409.21,893Zm-86.66,20.8L346.07,860l-7.26-3.16-23.53,53.82Zm-2.86-758.18-31.78-52.58-6.9,4.16,21.92,36.19-60.34-15.77L274.19,180l6.89-4.16-21.61-35.7Zm-13.16,719a29.15,29.15,0,0,0,3.35-21.72c-1.74-7.95-7.39-14.78-17.07-20.55l-12.29-7.26-30,50.47L262.89,883c9.31,5.47,18,7.2,25.88,5A28.42,28.42,0,0,0,306.53,874.63Zm-46-54.19,5-6.21-25.27-20.61-37.06,45.57,25.27,20.55,5-6.15-19.12-15.52,12.85-15.64,19,15.52,5-6.15-19.06-15.52,9.25-11.42Zm-3.42-626.82-36.69-45.87-6.14,5L251,198.59Zm-30.91,27L190.57,184.5l10-9.87L194.91,169l-25.51,25.2,5.58,5.71,9.94-9.87,35.63,36.13Zm-42.71,601.8L218.94,770,174,785.12l20.8-42.71-56.62,28.3,5.15,5.84,34.89-17.45-19,39,40.84-13.53-21.72,32Zm10.74-567,5.58-7.32-30.35-1.74c2.36-5.09,3.1-9.62,2.3-13.47a15.44,15.44,0,0,0-5.9-9.37,15.09,15.09,0,0,0-13.29-2.67c-4.9,1.24-9.25,4.4-13.1,9.37l-7.82,10.12,46.62,35.82,4.91-6.39L164,255.08l1.11-1.43ZM157,314.8c3.29-6,4-11.85,2.17-17.5s-5.89-10.18-12.23-13.66L114.52,266,110.67,273,143.57,291c4.28,2.36,7,5.28,8.13,8.82s.62,7.45-1.67,11.55-5.28,6.64-9.07,7.45-8,.06-12.72-2.49L96.58,299l-3.85,7.08,30.48,16.57c7.45,4.1,14.15,5.34,20,3.79S153.63,321,157,314.8ZM156.42,689,142,659.78,89.31,685.66l3.48,7.27,25.27-12.48,10.86,22L136,699l-10.87-22,13.23-6.52,10.86,22.1ZM133.2,367.2a36.42,36.42,0,0,0,1.56-17.82l-8.63-3c1.24,6.64.93,12.42-.75,17.32-2.3,6.83-6.33,11.8-12,14.9a22.28,22.28,0,0,1-30.92-10.43,24.18,24.18,0,0,1-.68-18.5c1.74-5,5-10,10.06-15l-8.57-2.92a45.41,45.41,0,0,0-9.43,15.58A31.88,31.88,0,0,0,75,372a29.58,29.58,0,0,0,17.76,16.14c8.13,2.86,16.2,2.11,24.15-2A32.38,32.38,0,0,0,133.2,367.2Zm-8.94,269.17a31.23,31.23,0,0,0,2.36-24.27,32.5,32.5,0,0,0-15.21-19.62c-7.63-4.34-15.52-5.4-23.65-3A30.3,30.3,0,0,0,68.89,605a31.65,31.65,0,0,0-2.36,24.59A32,32,0,0,0,81.86,649a30.72,30.72,0,0,0,24.28,2.61A29.07,29.07,0,0,0,124.26,636.37ZM92.29,500a13.78,13.78,0,1,0-13.78,13.78A13.83,13.83,0,0,0,92.29,500Z" transform="translate(-4.97 -4.97)"/><polygon class="cls-1" points="818.93 185.67 813.28 191.39 803.22 181.64 767.96 218.02 762.19 212.49 797.57 176.05 787.52 166.37 793.1 160.59 818.93 185.67"/><path class="cls-1" d="M789.07,805.66c5,5.9,7.14,13,6.64,21.17s-5,15.83-13.28,22.79l-10.93,9.25-37.86-45,10.92-9.19c8.63-7.2,17-10.36,25-9.31A29.26,29.26,0,0,1,789.07,805.66ZM787,829.81a18.75,18.75,0,0,0,.25-9.62,20.23,20.23,0,0,0-4.47-9.12,21.27,21.27,0,0,0-10.86-7,18.8,18.8,0,0,0-11.74.31c-3.53,1.24-7.63,3.91-12.16,7.76l-3.11,2.55,27.63,32.9.37-.25a95.26,95.26,0,0,0,9.81-9.31A23.27,23.27,0,0,0,787,829.81Z" transform="translate(-4.97 -4.97)"/><path class="cls-3" d="M787.21,820.19a18.75,18.75,0,0,1-.25,9.62,23.27,23.27,0,0,1-4.28,8.26,95.26,95.26,0,0,1-9.81,9.31l-.37.25-27.63-32.9,3.11-2.55c4.53-3.85,8.63-6.52,12.16-7.76a18.8,18.8,0,0,1,11.74-.31,21.27,21.27,0,0,1,10.86,7A20.23,20.23,0,0,1,787.21,820.19Z" transform="translate(-4.97 -4.97)"/><path class="cls-4" d="M779.75,326.35V426.44H719.51c-1.73,3.63-6.53,9.55-19.28,9.55s-17.55-5.92-19.29-9.55H620.71V326.35h6.51v93.58H686l.45,2.73c.05.21,1.57,6.82,13.8,6.82s13.75-6.61,13.8-6.89l.46-2.72h.08l2.67.06h56V326.35Z" transform="translate(-4.97 -4.97)"/><path class="cls-4" d="M769.43,313.18V414.23h-35s-.32,0-.87,0l-1.65.08-.27,0-.35,0c-1.71.12-3.43.28-5.12.47l-1.64.21-.75.1-.64.09-1.57.25-.46.08-.42.07-.75.14-.3,0-.52.1-.74.16-1.13.24c-.45.11-.89.21-1.33.33l-.6.15-.71.19-.74.22-.4.12-.6.19-.4.13-.38.13h0l-.37.13-.53.19-.55.22-.52.21c-.37.16-.74.32-1.09.49l-.9.46c-.32.17-.63.34-.92.52l-.34.21-.44.3-.23.17-.09.07-.36.28-.19.16-.41.37-.23.24-.18.19c-.1.11-.19.23-.28.34l-.12.17-.17.24-.07.11-.15.27-.09.2v.74l-.31.31-.07.67v.06l-6.51-.05c0-3.5-4.3-6-9.93-7.73a86.09,86.09,0,0,0-21.1-3.12H631V313.18h35c3.15.06,25.7.82,34.23,9.64,8.52-8.82,31.06-9.58,34.16-9.64Zm-6.52,94.53v-88H734.45c-10.06.21-31,3.14-31,10.86v84.13l.32-.2c.4-.25.82-.48,1.25-.71s.77-.41,1.18-.6.89-.41,1.37-.61l.62-.26.65-.25.39-.15.44-.43h.81l.39-.12.68-.22L712,411l1.66-.47.66-.16c.44-.12.95-.24,1.46-.36l1.22-.26.77-.16.66-.13.3-.06.81-.15.42-.07.55-.09,1.64-.26.69-.1.77-.1,1.77-.23c1.81-.21,3.64-.37,5.46-.5l2.38-.13,1.14,0ZM697,414.77V330.55c0-7-18.52-10.6-31-10.86h-28.4v88H666C668.81,407.77,687,408.39,697,414.77Z" transform="translate(-4.97 -4.97)"/><path class="cls-1" d="M762.91,319.69v88H734.4l-1.14,0-2.38.13c-1.82.13-3.65.29-5.46.5l-1.77.23-.77.1-.69.1-1.64.26-.55.09-.42.07-.81.15-.3.06-.66.13-.77.16-1.22.26c-.51.12-1,.24-1.46.36l-.66.16L712,411l-.46.14-.68.22-.39.12h-.81l-.44.43-.39.15-.65.25-.62.26c-.48.2-1,.41-1.37.61s-.8.39-1.18.6-.85.46-1.25.71l-.32.2V330.55c0-7.72,20.91-10.65,31-10.86ZM741.5,381.84a8,8,0,0,0,2.83-6.08,7.13,7.13,0,0,0-.92-3.54,7.48,7.48,0,0,0-2.29-2.55,25.56,25.56,0,0,0-4-2.06c-2.43-1-3.64-2.13-3.64-3.47a2.47,2.47,0,0,1,.7-1.75,2.24,2.24,0,0,1,1.68-.73c.84,0,2.22.57,4.13,1.7l3.64-4a10.71,10.71,0,0,0-7.56-2.84,8.55,8.55,0,0,0-6.17,2.26,7.75,7.75,0,0,0-2.35,5.87,7.39,7.39,0,0,0,.73,3.19,6.28,6.28,0,0,0,1.81,2.38A14.86,14.86,0,0,0,733.7,372q4.49,1.62,4.49,3.75a2.73,2.73,0,0,1-1,2,2.87,2.87,0,0,1-2,.94c-1.5,0-3.12-.89-4.84-2.66l-3.84,4.48q4.11,4,8.33,4A9.54,9.54,0,0,0,741.5,381.84Z" transform="translate(-4.97 -4.97)"/><path class="cls-1" d="M500,136c200.7,0,364,163.33,364,364S700.7,864.08,500,864.08,135.91,700.75,135.91,500,299.24,136,500,136ZM779.75,426.44V326.35h-6.52v93.58h-56l-2.67-.06.06-2.86.71-.19.6-.15c.44-.12.88-.22,1.33-.33l1.13-.24.74-.16.52-.1.3,0,.75-.14.42-.07.46-.08,1.57-.25.64-.09.75-.1,1.64-.21c1.69-.19,3.41-.35,5.12-.47l.35,0,.27,0,1.65-.08c.55,0,.87,0,.87,0h35V313.18h-35c-3.1.06-25.64.82-34.16,9.64-8.53-8.82-31.08-9.58-34.23-9.64H631V414.23h34.91a86.09,86.09,0,0,1,21.1,3.12L686,419.93H627.22V326.35h-6.51V426.44h60.23c1.74,3.63,6.53,9.55,19.29,9.55s17.55-5.92,19.28-9.55ZM739.47,657.32c15.59-30.4,13-57.61,12.92-58.72l-1.7-16.44-7.44,14.75a121.46,121.46,0,0,1-63,57.15c32.29-25,46.32-51.74,52.32-71.37,8.16-26.36,4.11-45.74,3.92-46.59l-2.09-9.65L728,534.08c-.53.65-54.87,65.24-123.31,62.63-7.24-.26-14.61-.65-22.44-1-24-1.23-50.43-2.61-76.24-.6l.58-22.76c15.17-5.32,33.91-14.95,34.22-36.6.28-20.64-18.54-33.8-29.79-39.8-.83-.44-1.63-.84-2.45-1.25l1.49-58.22.45-.22c19.88-10.46,41.1-23.87,41.1-50.72,0-27.14-17.4-39.82-22.73-43.06a164.43,164.43,0,0,0-16.21-8.14L514.58,259c9.94,4.43,45.68,16.07,59.06,9.21a10.42,10.42,0,0,0,5.92-8.13c3.55-27.15-35.65-36.55-47.75-38.79a100.69,100.69,0,0,0-16.23-1.53l.57-22.2a26.21,26.21,0,1,0-32.3,0l.63,24.77c-.94.15-1.88.32-2.82.49-29.79,5.47-61.45,30-61.45,64.64,0,32.71,27.2,51.77,47.65,63.26a195.19,195.19,0,0,0,20.16,10l1.39,54.65c-4.33,2.28-8.83,4.62-13.85,7.17-16.37,8.31-33.11,20-33.11,43.35,0,22.83,20.33,33.36,35.18,41l.26.14c3.93,2,8.09,3.78,12.51,5.63l1.51.64,1.11,43.2c-21,11-33.25,22.34-36.36,33.67-2.12,7.69.88,12.46,1.23,13l.41.61c-17.77,5.76-34.09,14.64-47.71,28.12C396,646.56,383.77,660.19,374,671.09c-5.81,6.39-11.68,13-15.79,17,4.24-16.77,22.24-41,39.66-64.4,3.92-5.28,8-10.83,11.88-16.11,26.68-36.86,31.38-57,32.95-63.68,7.11-30.46-1.11-50-2.09-52.19-14.68-37.32-46.58-35.49-50.43-35.1-21.21.52-38.11,7.5-50.24,20.68-20.68,22.51-20.09,55.39-19.9,60,0,.39-.06.72-.06,1.17-.4,3.46-1.18,11.55-8.35,29.17-3.72,9.59-3.14,15.59,1.69,17.87a6.48,6.48,0,0,0,2.74.59c7.9,0,19.31-13.31,34.06-39.73,4.89-8.68,10.7-11.49,20.35-16.05,4.9-2.35,8.16-4,10.57-5.16a50.76,50.76,0,0,1,7.57-3.39l.72-.33a7.33,7.33,0,0,1,2.93-.71c.4.84,2.81,7.56-11.41,37.58-10.9,23-26.43,41.1-41.43,58.58-23,26.82-44.89,52.39-44.89,90.88a112.64,112.64,0,0,0,2.16,21.73c6.45,33.6,30.53,63.09,67.78,83.12,34.32,18.39,78,27.92,127.74,27.92q14.3,0,29.17-1c90-6.4,144.24-44.5,173.86-75.29,32.23-33.54,42.87-65.24,43.33-66.61L744,681.07l-13.18,11.35c-19.38,16.64-47.43,28-75.61,31.71C704,707.69,727.85,679.9,739.47,657.32ZM376.68,426.44V326.35h-6.51v93.58h-56l-2.67-.06.06-2.86.72-.19.59-.15c.44-.12.88-.22,1.33-.33l1.13-.24.73-.15.53-.11.3,0,.77-.14.4-.07.46-.08,1.57-.25.66-.09.73-.1,1.64-.21c1.69-.19,3.41-.35,5.12-.47l.36,0,.26,0,1.65-.08c.55,0,.87,0,.87,0h35V313.18h-35c-3.1.06-25.64.82-34.16,9.64-8.53-8.82-31.08-9.58-34.23-9.64H228V414.23h34.91a86.09,86.09,0,0,1,21.1,3.12l-1.06,2.58H224.15V326.35h-6.51V426.44h60.23c1.74,3.63,6.53,9.55,19.29,9.55s17.55-5.92,19.28-9.55Z" transform="translate(-4.97 -4.97)"/><polygon class="cls-3" points="749.15 146.13 744.37 168.6 729.16 157.43 749.15 146.13"/><path class="cls-4" d="M752.39,598.6c.13,1.11,2.67,28.32-12.92,58.72-11.62,22.58-35.49,50.37-84.29,66.81,28.18-3.72,56.23-15.07,75.61-31.71L744,681.07l-5.41,16.51c-.46,1.37-11.1,33.07-43.33,66.61C665.61,795,611.4,833.08,521.37,839.48q-14.88,1.07-29.17,1c-49.71,0-93.42-9.53-127.74-27.92-37.25-20-61.33-49.52-67.78-83.12a112.64,112.64,0,0,1-2.16-21.73c0-38.49,21.86-64.06,44.89-90.88,15-17.48,30.53-35.55,41.43-58.58,14.22-30,11.81-36.74,11.41-37.58a7.33,7.33,0,0,0-2.93.71l-.72.33a50.76,50.76,0,0,0-7.57,3.39c-2.41,1.18-5.67,2.81-10.57,5.16-9.65,4.56-15.46,7.37-20.35,16.05-14.75,26.42-26.16,39.73-34.06,39.73a6.48,6.48,0,0,1-2.74-.59c-4.83-2.28-5.41-8.28-1.69-17.87,7.17-17.62,7.95-25.71,8.35-29.17,0-.45.06-.78.06-1.17-.19-4.57-.78-37.45,19.9-60,12.13-13.18,29-20.16,50.24-20.68,3.85-.39,35.75-2.22,50.43,35.1,1,2.15,9.2,21.73,2.09,52.19-1.57,6.66-6.27,26.82-32.95,63.68-3.92,5.28-8,10.83-11.88,16.11-17.42,23.42-35.42,47.63-39.66,64.4,4.11-4,10-10.64,15.79-17,9.78-10.9,22-24.53,36.6-39.08,13.62-13.48,29.94-22.36,47.71-28.12l5,7.54,1.32-9.45A200.41,200.41,0,0,1,494,596.26l.76,29.7,0,.88a5.22,5.22,0,0,0,10.38-.06h0l0-.72.79-31c25.81-2,52.25-.63,76.24.6,7.83.39,15.2.78,22.44,1,68.44,2.61,122.78-62,123.31-62.63l6.39-7.63,2.09,9.65c.19.85,4.24,20.23-3.92,46.59-6,19.63-20,46.32-52.32,71.37a121.46,121.46,0,0,0,63-57.15l7.44-14.75Z" transform="translate(-4.97 -4.97)"/><path class="cls-4" d="M744.33,375.76a8,8,0,0,1-2.83,6.08,9.54,9.54,0,0,1-6.66,2.58q-4.23,0-8.33-4l3.84-4.48c1.72,1.77,3.34,2.66,4.84,2.66a2.87,2.87,0,0,0,2-.94,2.73,2.73,0,0,0,1-2q0-2.13-4.49-3.75a14.86,14.86,0,0,1-3.64-1.75,6.28,6.28,0,0,1-1.81-2.38,7.39,7.39,0,0,1-.73-3.19,7.75,7.75,0,0,1,2.35-5.87,8.55,8.55,0,0,1,6.17-2.26,10.71,10.71,0,0,1,7.56,2.84l-3.64,4c-1.91-1.13-3.29-1.7-4.13-1.7a2.24,2.24,0,0,0-1.68.73,2.47,2.47,0,0,0-.7,1.75c0,1.34,1.21,2.49,3.64,3.47a25.56,25.56,0,0,1,4,2.06,7.48,7.48,0,0,1,2.29,2.55A7.13,7.13,0,0,1,744.33,375.76Z" transform="translate(-4.97 -4.97)"/><path class="cls-1" d="M736,857.56c3.61,6.21,4.78,12.23,3.36,18s-5,10.43-10.87,13.84-11.92,4.53-17.75,2.86-10.87-6.09-15.21-13.48l-17.57-30,6.89-4,18.31,31.11c2.67,4.59,5.9,7.51,9.56,8.75s7.58.62,11.61-1.74,6.52-5.4,7.39-9,.06-7.57-2.42-11.8l-18.93-32.34,6.95-4Z" transform="translate(-4.97 -4.97)"/><path class="cls-1" d="M714.63,417l-.06,2.86h-.08l-.46,2.72c0,.28-1.57,6.89-13.8,6.89s-13.75-6.61-13.8-6.82l-.45-2.73,1.06-2.58c5.63,1.72,9.93,4.23,9.93,7.73l6.51.05v-.06l.07-.67.31-.31v-.74l.09-.2.15-.27.07-.11.17-.24.12-.17c.09-.11.18-.23.28-.34l.18-.19.23-.24.41-.37.19-.16.36-.28.09-.07.23-.17.44-.3.34-.21c.29-.18.6-.35.92-.52l.9-.46c.35-.17.72-.33,1.09-.49l.52-.21.55-.22.53-.19.37-.13h0l.38-.13.4-.13.6-.19.4-.12Z" transform="translate(-4.97 -4.97)"/><path class="cls-1" d="M697,330.55v84.22c-10-6.38-28.16-7-31-7.06H637.54v-88h28.4C678.45,320,697,323.57,697,330.55Zm-11.33,53.5-3.49-27.14h-6.71l-5.09,16.27-5.08-16.27h-6.95L655,384.05h5.67l2.26-19.27L669,384.05h2.66l6-19.1,2.4,19.1Z" transform="translate(-4.97 -4.97)"/><polygon class="cls-4" points="677.18 351.94 680.67 379.08 675.1 379.08 672.7 359.98 666.73 379.08 664.07 379.08 657.94 359.81 655.68 379.08 650.01 379.08 653.35 351.94 660.3 351.94 665.38 368.21 670.47 351.94 677.18 351.94"/><polygon class="cls-1" points="646.84 863.89 665.78 910.95 658.45 913.93 639.58 866.87 626.61 872.09 623.56 864.64 656.9 851.23 659.88 858.68 646.84 863.89"/><path class="cls-1" d="M624.25,916.29a17.14,17.14,0,0,1-2.11,13.47,17.91,17.91,0,0,1-11.23,8.13,21.55,21.55,0,0,1-13.6-.74c-4.35-1.68-8.13-4.91-11.42-9.56l7.2-4.22c4.53,5.71,9.68,7.82,15.52,6.39a10.26,10.26,0,0,0,6.33-4.34,8.54,8.54,0,0,0,1.24-7.14,9.69,9.69,0,0,0-2.61-4.29,14.11,14.11,0,0,0-4.71-2.92,35.64,35.64,0,0,0-7.83-1.73,53.32,53.32,0,0,1-8.25-1.74,18.82,18.82,0,0,1-5.47-2.73,19.4,19.4,0,0,1-3.91-3.79,14.05,14.05,0,0,1-2-4.59,13.51,13.51,0,0,1,2.29-11.67,18,18,0,0,1,10.8-7.33,24.05,24.05,0,0,1,9.94-.37,19.84,19.84,0,0,1,9.49,4.16l-5,6.64a23.2,23.2,0,0,0-5.47-2.73,10.66,10.66,0,0,0-6.2.18,11.82,11.82,0,0,0-6.34,3.6,5.94,5.94,0,0,0-1.36,5.53,6.21,6.21,0,0,0,3.41,4,35.21,35.21,0,0,0,8.88,2.35,53.66,53.66,0,0,1,9.68,2.24,23.83,23.83,0,0,1,6.15,3.23,17.83,17.83,0,0,1,4.22,4.47A18.82,18.82,0,0,1,624.25,916.29Z" transform="translate(-4.97 -4.97)"/><path class="cls-3" d="M600.48,76.36a22.47,22.47,0,0,1-6.27,31.9,22.31,22.31,0,0,1-17.39,3.48,24.78,24.78,0,0,1-15.89-9.93,22.19,22.19,0,0,1-3.79-17.45,22.51,22.51,0,0,1,10-14.52,23.45,23.45,0,0,1,17.69-3.42A24.54,24.54,0,0,1,600.48,76.36Z" transform="translate(-4.97 -4.97)"/><path class="cls-4" d="M531.81,221.33c12.1,2.24,51.3,11.64,47.75,38.79a10.42,10.42,0,0,1-5.92,8.13c-13.38,6.86-49.12-4.78-59.06-9.21l-1.92,75.26a164.43,164.43,0,0,1,16.21,8.14c5.33,3.24,22.73,15.92,22.73,43.06,0,26.85-21.22,40.26-41.1,50.72l-.45.22-1.49,58.22c.82.41,1.62.81,2.45,1.25,11.25,6,30.07,19.16,29.79,39.8-.31,21.65-19,31.28-34.22,36.6L506,595.07q-6,.46-12,1.19l-.49-19.06c-26.23,11.41-28.87,24.44-28.89,24.59l0,.19q-3.19.88-6.32,1.91l-.41-.61c-.35-.52-3.35-5.29-1.23-13C459.77,579,472,567.67,493,556.63l-1.11-43.2-1.51-.64c-4.42-1.85-8.58-3.6-12.51-5.63l-.26-.14c-14.85-7.68-35.18-18.21-35.18-41,0-23.39,16.74-35,33.11-43.35,5-2.55,9.52-4.89,13.85-7.17L488,360.81a195.19,195.19,0,0,1-20.16-10c-20.45-11.49-47.65-30.55-47.65-63.26,0-34.66,31.66-59.17,61.45-64.64.94-.17,1.88-.34,2.82-.49l-.63-24.77a26.22,26.22,0,1,1,32.3,0l-.57,22.2A100.69,100.69,0,0,1,531.81,221.33Zm40.38,37.82C575,238,537.91,230,530.46,228.65a95.87,95.87,0,0,0-17.39-1.45,168.72,168.72,0,0,0-30.07,3c-26.83,4.93-55.35,26.69-55.35,57.33,0,28.49,23.44,45.3,43.85,56.77,6.6,3.71,11.71,6.27,16.31,8.33L487.23,330c-2.06-1.14-4.16-2.34-6.31-3.63-7.36-4.42-31.36-20.29-31.36-38.83,0-21.25,24.65-30.72,32.75-33.83,5.75-2.21,24.33-7.31,34.12-2.05,7.48,4,43.45,15.26,53.82,9.94A3,3,0,0,0,572.19,259.15Zm-28,126.35c0-23.26-14.66-34-19.15-36.71a129.43,129.43,0,0,0-12.56-6.39l-.51,19.9C519,365.89,528,372.72,528,385.44c0,14.74-12.42,24.48-22.83,30.05-8.53,4.57-16.39,8.76-26.25,13.77-15.09,7.65-29,17.4-29,36.72,0,18.31,17.27,27.25,31.16,34.44l.25.13c3.21,1.66,6.72,3.17,10.4,4.72l-.26-10.2c-3.55-1.51-6.92-2.94-9.81-4.44C472.49,485.89,460,479.39,460,466c0-13.81,8.52-18.53,22.42-25.1,6.09-2.9,12.23-5.63,17.15-7.83,3.44-1.54,6.16-2.75,7.6-3.46C525.82,419.76,544.16,408.2,544.16,385.5Zm-10.8,150.11c.23-16.23-15.18-27.29-25-32.68l-.24,9.68,1.19.6C516.59,517,525,522.93,525,535.66c0,12.57-9.48,18.21-20.92,23.77C483.7,569.1,473.5,577.61,468.41,584c6.59-5.9,17-12.43,33.61-18C523.5,558.86,533.17,549.48,533.36,535.61ZM520.57,385.44c0-6-2.86-10.75-8.84-14.62l-.82,32C516.27,398.37,520.57,392.58,520.57,385.44Zm-3.05,150.22c0-6.47-2.74-10.74-9.62-14.74l-.73,28.5C514.26,545.37,517.52,541.72,517.52,535.66Zm-26.29-48.77-1.06-41.45-4.61,2.16c-14.51,6.86-18.16,9.73-18.16,18.38,0,8.24,7.65,12.86,17.66,18C486.87,485,489,485.92,491.23,486.89ZM487,321.35l-1.55-60.84-.49.17c-18.82,7.24-28,16-28,26.89,0,15,23.12,29.67,27.75,32.46C485.51,320.49,486.26,320.91,487,321.35Z" transform="translate(-4.97 -4.97)"/><path class="cls-1" d="M530.46,228.65c7.45,1.37,44.5,9.31,41.73,30.5a3,3,0,0,1-1.94,2.48c-10.37,5.32-46.34-5.93-53.82-9.94-9.79-5.26-28.37-.16-34.12,2.05-8.1,3.11-32.75,12.58-32.75,33.83,0,18.54,24,34.41,31.36,38.83,2.15,1.29,4.25,2.49,6.31,3.63l.58,22.58c-4.6-2.06-9.71-4.62-16.31-8.33-20.41-11.47-43.85-28.28-43.85-56.77,0-30.64,28.52-52.4,55.35-57.33a168.72,168.72,0,0,1,30.07-3A95.87,95.87,0,0,1,530.46,228.65Z" transform="translate(-4.97 -4.97)"/><path class="cls-1" d="M525,348.79c4.49,2.73,19.15,13.45,19.15,36.71,0,22.7-18.34,34.26-37,44.09-1.44.71-4.16,1.92-7.6,3.46-4.92,2.2-11.06,4.93-17.15,7.83C468.48,447.45,460,452.17,460,466c0,13.41,12.53,19.91,21.67,24.65,2.89,1.5,6.26,2.93,9.81,4.44l.26,10.2c-3.68-1.55-7.19-3.06-10.4-4.72l-.25-.13c-13.89-7.19-31.16-16.13-31.16-34.44,0-19.32,13.95-29.07,29-36.72,9.86-5,17.72-9.2,26.25-13.77,10.41-5.57,22.83-15.31,22.83-30.05,0-12.72-9-19.55-16.07-23.14l.51-19.9A129.43,129.43,0,0,1,525,348.79Z" transform="translate(-4.97 -4.97)"/><path class="cls-1" d="M508.35,502.93c9.83,5.39,25.24,16.45,25,32.68-.19,13.87-9.86,23.25-31.34,30.4-16.57,5.52-27,12-33.61,18,5.09-6.35,15.29-14.86,35.63-24.53,11.44-5.56,20.92-11.2,20.92-23.77,0-12.73-8.37-18.68-15.66-22.45l-1.19-.6Z" transform="translate(-4.97 -4.97)"/><polygon class="cls-1" points="520.14 936.71 520.33 944.59 493.26 945.22 491.96 886.49 499.9 886.24 501.02 937.08 520.14 936.71"/><path class="cls-1" d="M511.73,370.82c6,3.87,8.84,8.64,8.84,14.62,0,7.14-4.3,12.93-9.66,17.38Z" transform="translate(-4.97 -4.97)"/><path class="cls-1" d="M507.9,520.92c6.88,4,9.62,8.27,9.62,14.74,0,6.06-3.26,9.71-10.35,13.76Z" transform="translate(-4.97 -4.97)"/><path class="cls-4" d="M506,595.07l-.79,31,0,.72h0a5.22,5.22,0,0,1-10.38.06l0-.88-.76-29.7Q500,595.53,506,595.07Z" transform="translate(-4.97 -4.97)"/><path class="cls-1" d="M493.54,577.2l.49,19.06A200.41,200.41,0,0,0,464.62,602l0-.19C464.67,601.64,467.31,588.61,493.54,577.2Z" transform="translate(-4.97 -4.97)"/><path class="cls-1" d="M490.17,445.44l1.06,41.45c-2.24-1-4.36-1.92-6.17-2.86-10-5.19-17.66-9.81-17.66-18,0-8.65,3.65-11.52,18.16-18.38Z" transform="translate(-4.97 -4.97)"/><path class="cls-1" d="M485.46,260.51,487,321.35c-.75-.44-1.5-.86-2.26-1.32-4.63-2.79-27.75-17.44-27.75-32.46,0-10.86,9.15-19.65,28-26.89Z" transform="translate(-4.97 -4.97)"/><path class="cls-1" d="M452,886.18l20.18,63.88-8.38-1-5-15.71-24.71-3-8.56,14.09-8.2-1Zm4.66,40.1-6.89-21.91L438,924.05Z" transform="translate(-4.97 -4.97)"/><path class="cls-4" d="M464.62,602l-1.32,9.45-5-7.54Q461.42,602.87,464.62,602Z" transform="translate(-4.97 -4.97)"/><polygon class="cls-3" points="444.84 899.4 451.73 921.31 432.98 919.08 444.84 899.4"/><path class="cls-1" d="M411.82,884.26,409.21,893q-7.72-7.17-15.46-9.5A24.07,24.07,0,0,0,375.38,885a22.23,22.23,0,0,0-9.13,31.29c3.35,5.59,8.44,9.37,15.4,11.42,5,1.43,10.74,1.43,17.25,0l-2.6,8.76a36,36,0,0,1-17.76-.81,32.77,32.77,0,0,1-19.8-15.52,29.74,29.74,0,0,1-2.92-24.09,29.37,29.37,0,0,1,15.4-18.37,32.18,32.18,0,0,1,24.58-2.24A47.32,47.32,0,0,1,411.82,884.26Z" transform="translate(-4.97 -4.97)"/><path class="cls-2" d="M397.26,858.46q5,1.42,10.07,2.72Q402.28,859.89,397.26,858.46Z" transform="translate(-4.97 -4.97)"/><polygon class="cls-3" points="374.94 79.08 389.77 96.65 371.65 101.8 374.94 79.08"/><path class="cls-2" d="M387.28,144.53q5-1.58,10-3Q392.24,143,387.28,144.53Z" transform="translate(-4.97 -4.97)"/><path class="cls-4" d="M376.68,326.35V426.44H316.44c-1.73,3.63-6.52,9.55-19.28,9.55s-17.55-5.92-19.29-9.55H217.64V326.35h6.51v93.58h58.76l.45,2.72c.05.22,1.57,6.83,13.8,6.83s13.75-6.61,13.8-6.89l.46-2.72h.08l2.67.06h56V326.35Z" transform="translate(-4.97 -4.97)"/><path class="cls-4" d="M366.36,313.18V414.23h-35s-.32,0-.87,0l-1.65.08-.26,0-.36,0c-1.71.12-3.43.28-5.12.47l-1.64.21-.73.1-.66.09-1.57.25-.46.08-.4.07-.77.14-.3,0-.53.11-.73.15-1.13.24c-.45.11-.89.21-1.33.33l-.59.15-.72.19-.73.21-.41.13-.6.19-.45.15-.74.25-.51.19-.55.22-.53.21-1.08.49-.9.46c-.32.17-.63.34-.92.52l-.34.21-.43.3-.22.15-.11.09-.35.27-.23.19-.37.35-.25.25-.1.1c-.16.18-.26.3-.35.42l-.12.17-.16.23-.08.13a2.54,2.54,0,0,0-.16.28l-.08.19v.56l-.29.35-.09.78v.05l-6.51,0c0-3.5-4.3-6-9.93-7.73a86.09,86.09,0,0,0-21.1-3.12H228V313.18h35c3.15.06,25.7.82,34.23,9.64,8.52-8.82,31.06-9.58,34.16-9.64Zm-6.52,94.53v-88H331.38c-10.06.21-31,3.14-31,10.86v84.13l.32-.2c.4-.24.82-.48,1.25-.71s.77-.41,1.18-.6.89-.41,1.36-.61l.63-.26.65-.25.4-.15.43-.43h.81l.39-.12.68-.22L309,411l1.65-.47.66-.16c.44-.12.95-.24,1.46-.36l1.22-.26.77-.16.66-.13.31-.06.8-.15.43-.07.54-.09,1.64-.26.69-.1.77-.1,1.77-.23c1.81-.21,3.64-.37,5.46-.5l2.38-.13,1.14,0Zm-65.94,7.06V330.55c0-7-18.52-10.6-31-10.86h-28.4v88h28.46C265.74,407.77,283.94,408.39,293.9,414.77Z" transform="translate(-4.97 -4.97)"/><path class="cls-2" d="M356.12,155.94q10.2-4.27,20.65-7.92Q366.33,151.68,356.12,155.94Z" transform="translate(-4.97 -4.97)"/><path class="cls-1" d="M359.84,319.69v88H331.33l-1.14,0-2.38.13c-1.82.13-3.65.29-5.46.5l-1.77.23-.77.1-.69.1-1.64.26-.54.09-.43.07-.8.15-.31.06-.66.13-.77.16-1.22.26c-.51.12-1,.24-1.46.36l-.66.16L309,411l-.47.14-.68.22-.39.12h-.81l-.43.43-.4.15-.65.25-.63.26c-.47.2-.94.41-1.36.61s-.8.39-1.18.6-.85.47-1.25.71l-.32.2V330.55c0-7.72,20.91-10.65,31-10.86ZM344,384.05l-11.06-27.14h-4.53l-10.87,27.14h5.85l2.13-5.33h10.42l2.17,5.33Z" transform="translate(-4.97 -4.97)"/><polygon class="cls-1" points="341.1 855.01 317.58 908.84 310.31 905.67 333.84 851.85 341.1 855.01"/><path class="cls-4" d="M332.89,356.91,344,384.05h-5.89l-2.17-5.33H325.47l-2.13,5.33h-5.85l10.87-27.14Zm1,16.89-3.25-8-3.2,8Z" transform="translate(-4.97 -4.97)"/><polygon class="cls-1" points="325.66 360.82 328.91 368.83 322.46 368.83 325.66 360.82"/><path class="cls-1" d="M311.56,417l-.06,2.86h-.08l-.46,2.72c0,.28-1.57,6.89-13.8,6.89s-13.75-6.61-13.8-6.83l-.45-2.72,1.06-2.58c5.63,1.72,9.93,4.23,9.93,7.73l6.51,0v-.05l.09-.78.29-.35v-.56l.08-.19a2.54,2.54,0,0,1,.16-.28l.08-.13.16-.23.12-.17c.09-.12.19-.24.35-.42l.1-.1.25-.25.37-.35.23-.19.35-.27.11-.09.22-.15.43-.3.34-.21c.29-.18.6-.35.92-.52l.9-.46,1.08-.49.53-.21.55-.22.51-.19.74-.25.45-.15.6-.19.41-.13Z" transform="translate(-4.97 -4.97)"/><path class="cls-1" d="M309.88,852.91a29.15,29.15,0,0,1-3.35,21.72,28.42,28.42,0,0,1-17.76,13.29c-7.88,2.23-16.57.5-25.88-5l-12.36-7.38,30-50.47,12.29,7.26C302.49,838.13,308.14,845,309.88,852.91Zm-10.49,17.5a20.31,20.31,0,0,0,3-12.47,19.21,19.21,0,0,0-4.1-11.05c-2.42-2.86-6.21-5.84-11.36-8.88l-3.47-2.11-21.92,37,.37.24a78,78,0,0,0,12.05,6.15,21.22,21.22,0,0,0,9.12,1.3,20,20,0,0,0,9.25-2.85A21,21,0,0,0,299.39,870.41Z" transform="translate(-4.97 -4.97)"/><path class="cls-3" d="M302.37,857.94a20.31,20.31,0,0,1-3,12.47,21,21,0,0,1-7.08,7.33,20,20,0,0,1-9.25,2.85,21.22,21.22,0,0,1-9.12-1.3,78,78,0,0,1-12.05-6.15l-.37-.24,21.92-37,3.47,2.11c5.15,3,8.94,6,11.36,8.88A19.21,19.21,0,0,1,302.37,857.94Z" transform="translate(-4.97 -4.97)"/><path class="cls-1" d="M293.9,330.55v84.22c-10-6.38-28.16-7-31-7.06H234.47v-88h28.4C275.38,320,293.9,323.57,293.9,330.55Zm-19.75,52.28v-6.57q-4.26,2.46-7.32,2.46a7.34,7.34,0,0,1-5.58-2.19,8.06,8.06,0,0,1-2.09-5.82,9,9,0,0,1,2-6.11,6.69,6.69,0,0,1,5.3-2.28q3.3,0,7.71,2.65v-6.62a19.24,19.24,0,0,0-7.71-1.82,12.58,12.58,0,0,0-9.48,4.09,13.88,13.88,0,0,0-3.9,10,13.71,13.71,0,0,0,3.83,9.81,12.34,12.34,0,0,0,9.3,4A26.27,26.27,0,0,0,274.15,382.83Z" transform="translate(-4.97 -4.97)"/><path class="cls-2" d="M272.55,204.65q4.72-3.68,9.55-7.15Q277.28,201,272.55,204.65Z" transform="translate(-4.97 -4.97)"/><path class="cls-4" d="M274.15,376.26v6.57a26.27,26.27,0,0,1-8,1.59,12.34,12.34,0,0,1-9.3-4,13.71,13.71,0,0,1-3.83-9.81,13.88,13.88,0,0,1,3.9-10,12.58,12.58,0,0,1,9.48-4.09,19.24,19.24,0,0,1,7.71,1.82V365q-4.41-2.66-7.71-2.65a6.69,6.69,0,0,0-5.3,2.28,9,9,0,0,0-2,6.11,8.06,8.06,0,0,0,2.09,5.82,7.34,7.34,0,0,0,5.58,2.19Q269.89,378.72,274.15,376.26Z" transform="translate(-4.97 -4.97)"/><polygon class="cls-1" points="260.59 809.26 255.56 815.47 236.44 799.89 227.19 811.31 246.25 826.83 241.22 832.98 222.22 817.46 209.37 833.1 228.49 848.62 223.53 854.77 198.26 834.22 235.32 788.65 260.59 809.26"/><path class="cls-2" d="M263.19,212.12q-13.86,11.48-26.75,24.34C166,306.86,127.31,400.41,127.31,500S166,693.18,236.44,763.57q9.3,9.3,19.12,17.87-9.84-8.55-19.15-17.87C166,693.18,127.28,599.56,127.28,500S166,306.86,236.41,236.46Q249.3,223.56,263.19,212.12Z" transform="translate(-4.97 -4.97)"/><polygon class="cls-1" points="213.97 765 178.52 817.46 173.37 811.56 195.09 779.59 154.25 793.12 173.24 754.13 138.35 771.58 133.2 765.74 189.82 737.44 169.02 780.15 213.97 765"/><path class="cls-3" d="M161.14,230.5c5.59,4.28,4.72,11.11-2.67,20.3l-16.26-12.48a45.09,45.09,0,0,1,6.89-7.51,10,10,0,0,1,5.89-2.42A8.94,8.94,0,0,1,161.14,230.5Z" transform="translate(-4.97 -4.97)"/><polygon class="cls-1" points="137.05 654.81 151.45 684.05 144.25 687.52 133.39 665.42 120.16 671.94 131.03 693.98 123.95 697.52 113.09 675.48 87.82 687.96 84.34 680.69 137.05 654.81"/><path class="cls-1" d="M126.62,612.1a31.23,31.23,0,0,1-2.36,24.27,29.07,29.07,0,0,1-18.12,15.28A30.72,30.72,0,0,1,81.86,649a32,32,0,0,1-15.33-19.49A31.65,31.65,0,0,1,68.89,605,30.3,30.3,0,0,1,87.76,589.5c8.13-2.42,16-1.36,23.65,3A32.5,32.5,0,0,1,126.62,612.1Zm-9.56,20.11a24.25,24.25,0,0,0,1.56-18.43,23.5,23.5,0,0,0-11.24-14.1,22,22,0,0,0-17.63-2,21.49,21.49,0,0,0-13.54,11.48,24.44,24.44,0,0,0-1.42,18.62,23.35,23.35,0,0,0,28.62,15.84A21.72,21.72,0,0,0,117.06,632.21Z" transform="translate(-4.97 -4.97)"/><path class="cls-3" d="M118.62,613.78a24.25,24.25,0,0,1-1.56,18.43,21.72,21.72,0,0,1-13.65,11.37,23.35,23.35,0,0,1-28.62-15.84,24.44,24.44,0,0,1,1.42-18.62,21.49,21.49,0,0,1,13.54-11.48,22,22,0,0,1,17.63,2A23.5,23.5,0,0,1,118.62,613.78Z" transform="translate(-4.97 -4.97)"/><path class="cls-1" d="M78.51,486.2A13.79,13.79,0,1,1,64.73,500,13.83,13.83,0,0,1,78.51,486.2Z" transform="translate(-4.97 -4.97)"/></svg>